<svg width="40" height="40" viewBox="0 0 40 40" fill="none" xmlns="http://www.w3.org/2000/svg">
<path d="M40 20C40 31.0457 31.0457 40 20 40C8.9543 40 0 31.0457 0 20C0 8.9543 8.9543 0 20 0C31.0457 0 40 8.9543 40 20Z" fill="#fcda9b"/>
<path d="M26.5831 31.1565L24.0656 28.6387C23.9777 28.5508 23.8585 28.5014 23.7342 28.5014C23.7343 28.5014 23.7339 28.5014 23.7342 28.5014L22.3828 28.5034C22.3798 28.5034 22.3769 28.5034 22.3739 28.5034C21.6283 28.5034 20.8814 28.3662 20.1824 28.1046L20.9929 27.5611C21.3247 27.3387 21.5478 26.9999 21.6211 26.6072C21.6944 26.2145 21.6087 25.818 21.3795 25.4907C21.0946 25.0839 20.6358 24.863 20.1687 24.863C20.1611 24.863 20.1535 24.863 20.1458 24.8632L22.0128 22.9962C22.5792 22.4298 22.5792 21.5081 22.0128 20.9417C21.875 20.8039 21.7144 20.6972 21.5394 20.6251C21.6691 20.4047 21.7384 20.153 21.7384 19.8905C21.7384 19.5025 21.5873 19.1376 21.3129 18.8632C21.0385 18.5888 20.6737 18.4377 20.2856 18.4377C20.0232 18.4377 19.7714 18.507 19.551 18.6367C19.4789 18.4618 19.3723 18.3011 19.2344 18.1632C18.96 17.8888 18.5952 17.7377 18.2071 17.7377C17.819 17.7377 17.4542 17.8888 17.1798 18.1632L16.5095 18.8336C16.4382 18.6765 16.3387 18.5318 16.2131 18.4061C15.9387 18.1317 15.5739 17.9806 15.1858 17.9806C14.7977 17.9806 14.4329 18.1317 14.1585 18.4061L13.8613 18.7033L12.6533 17.502C12.3024 17.1511 12.3024 16.5801 12.6533 16.2292C12.9821 15.9005 13.5039 15.8798 13.857 16.1669L15.0269 17.3368C15.1184 17.4284 15.2384 17.4741 15.3583 17.4741C15.4783 17.4741 15.5983 17.4283 15.6898 17.3368C15.8728 17.1538 15.8728 16.857 15.6898 16.6739L13.6715 14.6557C13.3206 14.3047 13.3206 13.7337 13.6715 13.3828C14.0225 13.0319 14.5935 13.0319 14.9444 13.3828L18.4805 16.9258C18.572 17.0173 18.692 17.063 18.812 17.063C18.9319 17.063 19.0519 17.0173 19.1434 16.9258C19.3265 16.7427 19.3265 16.4459 19.1434 16.2628L16.4556 13.5682C16.1685 13.2151 16.1893 12.6933 16.518 12.3646C16.8689 12.0137 17.44 12.0137 17.7908 12.3646L18.7756 13.3494C18.9587 13.5325 19.2555 13.5325 19.4385 13.3494C19.6215 13.1664 19.6216 12.8696 19.4385 12.6865L18.4537 11.7017C17.7373 10.9853 16.5715 10.9853 15.8551 11.7017C15.6183 11.9385 15.4603 12.2244 15.38 12.5269C15.0697 12.3029 14.6983 12.1818 14.308 12.1818C13.8171 12.1818 13.3557 12.3729 13.0086 12.7199C12.3637 13.3648 12.2997 14.3736 12.8158 15.0913C12.5133 15.1715 12.2272 15.3296 11.9904 15.5664C11.3143 16.2425 11.2766 17.3187 11.8767 18.0398C11.5808 18.1215 11.3015 18.278 11.0694 18.51C10.353 19.2265 10.353 20.3922 11.0694 21.1087L11.2786 21.3179C10.4876 22.2677 10.0577 23.4527 10.0595 24.7041L10.0606 25.4806L8.1373 27.404C7.95425 27.5871 7.95425 27.8839 8.1373 28.067C8.22884 28.1585 8.3488 28.2043 8.46875 28.2043C8.5887 28.2043 8.7087 28.1585 8.8002 28.067L10.8611 26.006C10.9492 25.918 10.9986 25.7984 10.9984 25.6739L10.997 24.7029C10.9953 23.5378 11.4482 22.4424 12.272 21.6186L14.8214 19.0692C14.9187 18.9718 15.0481 18.9182 15.1858 18.9182C15.3234 18.9182 15.4528 18.9718 15.5501 19.0692C15.6475 19.1665 15.701 19.2958 15.701 19.4335C15.701 19.5517 15.6613 19.6637 15.5885 19.7546L14.9688 20.3743C14.7858 20.5573 14.7858 20.8541 14.9688 21.0372C14.9692 21.0376 14.9697 21.038 14.9701 21.0384C14.9705 21.0388 14.9708 21.0392 14.9713 21.0396C15.0628 21.1311 15.1828 21.1769 15.3027 21.1769C15.4227 21.1769 15.5427 21.1311 15.6342 21.0396L17.8426 18.8263C17.9399 18.7289 18.0693 18.6753 18.207 18.6753C18.3447 18.6753 18.474 18.7289 18.5713 18.8263C18.7584 19.0133 18.7711 19.3094 18.6098 19.5116L16.3604 21.7659C16.1773 21.949 16.1773 22.2458 16.3604 22.4289C16.4519 22.5204 16.5719 22.5662 16.6918 22.5662C16.8118 22.5662 16.9318 22.5204 17.0233 22.4289L19.9211 19.5262C20.0184 19.4288 20.1478 19.3752 20.2854 19.3752C20.4231 19.3752 20.5525 19.4289 20.6498 19.5262C20.8507 19.7271 20.8507 20.054 20.6498 20.2549L17.7471 23.1526C17.5641 23.3357 17.564 23.6325 17.7471 23.8156C17.9302 23.9986 18.227 23.9986 18.41 23.8156L20.6645 21.5661C20.8665 21.4048 21.1627 21.4175 21.3497 21.6047C21.5506 21.8055 21.5506 22.1325 21.3497 22.3333L18.185 25.4982C17.962 25.7211 17.9414 26.0629 18.136 26.311C18.3305 26.559 18.6674 26.6205 18.9371 26.457L19.8932 25.8774C20.1342 25.7312 20.4497 25.7976 20.6113 26.0286C20.6948 26.1478 20.726 26.2922 20.6993 26.4352C20.6726 26.5782 20.5914 26.7016 20.4706 26.7826L18.2586 28.2659C17.5388 28.7486 16.7007 29.0035 15.8341 29.0035C15.8321 29.0035 15.83 29.0035 15.828 29.0035L14.3256 29.0014C14.3258 29.0014 14.3254 29.0014 14.3256 29.0014C14.2013 29.0014 14.0814 29.0508 13.9935 29.1387L11.9325 31.1996C11.7495 31.3827 11.7495 31.6795 11.9325 31.8626C12.0241 31.9541 12.144 31.9999 12.264 31.9999C12.3839 31.9999 12.5039 31.9541 12.5954 31.8626L14.5188 29.9392L15.8267 29.9411C15.8292 29.9411 15.8315 29.9411 15.8341 29.9411C16.8871 29.9411 17.906 29.6311 18.7807 29.0446L19.2544 28.727C20.2223 29.194 21.2992 29.441 22.3737 29.441C22.377 29.441 22.3805 29.441 22.3839 29.441L23.54 29.4394L25.9202 31.8195C26.0117 31.911 26.1317 31.9568 26.2516 31.9568C26.3716 31.9568 26.4916 31.911 26.5831 31.8195C26.7661 31.6364 26.7661 31.3396 26.5831 31.1565ZM11.9256 20.6391L11.7324 20.4459C11.3815 20.0949 11.3815 19.5239 11.7324 19.173C12.0611 18.8443 12.5829 18.8236 12.936 19.1107L13.1951 19.3697L11.9256 20.6391Z" fill="#141414"/>
<path d="M31.8627 25.8773C31.7755 25.7896 31.6545 25.7399 31.5312 25.7399C31.408 25.7399 31.287 25.7896 31.1998 25.8773C31.1127 25.9645 31.0625 26.0849 31.0625 26.2087C31.0625 26.332 31.1127 26.4529 31.1998 26.54C31.287 26.6272 31.408 26.6774 31.5312 26.6774C31.6545 26.6774 31.7755 26.6273 31.8627 26.54C31.9498 26.4524 32 26.332 32 26.2087C32 26.0849 31.9498 25.9645 31.8627 25.8773Z" fill="#141414"/>
<path d="M30.6022 24.6166L29.4825 23.497L29.4853 21.6017C29.4873 20.1698 29.0668 18.7843 28.2693 17.595L26.2061 14.5182C25.9243 14.0979 25.4952 13.8153 24.9978 13.7224C24.5003 13.6295 23.9982 13.7382 23.5837 14.0285C22.9046 14.504 22.6345 15.362 22.8747 16.1226L21.6496 14.8975C21.4665 14.7145 21.1697 14.7145 20.9866 14.8975C20.8036 15.0805 20.8036 15.3773 20.9866 15.5604L23.6184 18.1922C23.8618 18.4356 24.2353 18.4582 24.5062 18.2456C24.7772 18.0331 24.8443 17.6651 24.6658 17.3705L23.8595 16.0406C23.6064 15.623 23.7214 15.0765 24.1214 14.7965C24.3278 14.6519 24.5781 14.5978 24.8256 14.6441C25.0734 14.6903 25.2871 14.8311 25.4274 15.0404L27.4906 18.1172C28.184 19.1511 28.5495 20.3556 28.5477 21.6004L28.5448 23.6902C28.5446 23.8147 28.594 23.9343 28.682 24.0223L29.9393 25.2796C30.0308 25.3711 30.1508 25.4169 30.2707 25.4169C30.3907 25.4169 30.5107 25.3711 30.6022 25.2796C30.7852 25.0965 30.7852 24.7997 30.6022 24.6166Z" fill="#141414"/>
<path d="M20.5475 13.7957C20.4608 13.7085 20.3398 13.6584 20.2166 13.6584C20.0928 13.6584 19.9723 13.7085 19.8847 13.7957C19.7975 13.8829 19.7473 14.0038 19.7473 14.1271C19.7473 14.2509 19.7975 14.3713 19.8847 14.4585C19.9723 14.5457 20.0928 14.5959 20.2166 14.5959C20.3398 14.5959 20.4603 14.5457 20.5475 14.4585C20.6352 14.3713 20.6853 14.2504 20.6853 14.1271C20.6853 14.0038 20.6352 13.8829 20.5475 13.7957Z" fill="#141414"/>
<path d="M24.8977 21.0699C25.0808 20.8868 25.0808 20.59 24.8977 20.4069C24.7147 20.2239 24.4179 20.2239 24.2348 20.4069L24.0303 20.6114C23.155 21.4868 23.155 22.9111 24.0303 23.7865C24.1219 23.878 24.2418 23.9238 24.3618 23.9238C24.4817 23.9238 24.6017 23.878 24.6932 23.7865C24.8763 23.6034 24.8763 23.3066 24.6932 23.1235C24.1834 22.6137 24.1834 21.7841 24.6932 21.2743L24.8977 21.0699Z" fill="#141414"/>
<path d="M30.3734 10.5313C30.0754 10.5313 29.7841 10.6159 29.5323 10.7705C29.2804 10.6159 28.9891 10.5313 28.6911 10.5313C27.7942 10.5313 27.0645 11.2744 27.0645 12.1877C27.0645 12.7053 27.4367 13.3269 28.2022 14.0881C28.7177 14.6007 29.2261 14.9908 29.2475 15.0071C29.3315 15.0714 29.4319 15.1035 29.5323 15.1035C29.6326 15.1035 29.7329 15.0714 29.817 15.0071C29.8384 14.9908 30.3469 14.6006 30.8623 14.0881C31.6279 13.3269 32 12.7053 32 12.1877C32 11.2744 31.2703 10.5313 30.3734 10.5313ZM29.5321 14.0351C28.7488 13.3844 28.002 12.5543 28.002 12.1877C28.002 11.7913 28.3112 11.4688 28.6911 11.4688C28.8801 11.4688 29.0565 11.5472 29.1877 11.6895C29.2765 11.7857 29.4014 11.8404 29.5323 11.8404C29.6631 11.8404 29.7881 11.7857 29.8768 11.6895C30.008 11.5472 30.1844 11.4688 30.3734 11.4688C30.7534 11.4688 31.0625 11.7913 31.0625 12.1877C31.0625 12.5533 30.3155 13.3837 29.5321 14.0351Z" fill="#141414"/>
<path d="M11.3089 8.00014C11.0109 8.00014 10.7196 8.0847 10.4677 8.23934C10.2159 8.0847 9.92459 8.00014 9.62661 8.00014C8.7297 8.00009 8 8.74311 8 9.65642C8 10.174 8.37214 10.7956 9.1377 11.5569C9.65314 12.0694 10.1616 12.4595 10.183 12.4759C10.267 12.5402 10.3674 12.5723 10.4677 12.5723C10.5681 12.5723 10.6684 12.5402 10.7525 12.4759C10.7739 12.4595 11.2823 12.0694 11.7978 11.5569C12.5633 10.7957 12.9355 10.1741 12.9355 9.65647C12.9355 8.74316 12.2058 8.00014 11.3089 8.00014ZM10.4676 11.5038C9.68417 10.8532 8.9375 10.0231 8.9375 9.65642C8.9375 9.26005 9.24664 8.93759 9.62661 8.93759C9.81561 8.93759 9.99195 9.01592 10.1232 9.15823C10.212 9.25442 10.3369 9.30912 10.4677 9.30912C10.5986 9.30912 10.7235 9.25442 10.8123 9.15823C10.9435 9.01597 11.1199 8.93759 11.3089 8.93759C11.6888 8.93759 11.998 9.26005 11.998 9.65642C11.998 10.022 11.251 10.8525 10.4676 11.5038Z" fill="#141414"/>
</svg>
