<svg width="40" height="40" viewBox="0 0 40 40" fill="none" xmlns="http://www.w3.org/2000/svg">
<path d="M40 20C40 31.0457 31.0457 40 20 40C8.9543 40 0 31.0457 0 20C0 8.9543 8.9543 0 20 0C31.0457 0 40 8.9543 40 20Z" fill="#fcda9b"/>
<path d="M16.892 13.906C16.6333 13.906 16.4233 14.116 16.4233 14.3747C16.4233 14.6335 16.6333 14.8435 16.892 14.8435C17.1508 14.8435 17.3608 14.6335 17.3608 14.3747C17.3608 14.116 17.1508 13.906 16.892 13.906Z" fill="#141414"/>
<path d="M21.1105 22.6711H19.7044V21.265C19.7044 21.0061 19.4945 20.7962 19.2356 20.7962C18.9768 20.7962 18.7669 21.0061 18.7669 21.265V22.6711H17.3608C17.1019 22.6711 16.892 22.881 16.892 23.1398C16.892 23.3986 17.1019 23.6086 17.3608 23.6086H18.7669V25.0147C18.7669 25.2736 18.9768 25.4835 19.2356 25.4835C19.4944 25.4835 19.7044 25.2736 19.7044 25.0147V23.6086H21.1105C21.3694 23.6086 21.5793 23.3987 21.5793 23.1398C21.5793 22.881 21.3694 22.6711 21.1105 22.6711Z" fill="#141414"/>
<path d="M33.7615 23.093C32.7253 21.2983 30.4342 20.6841 28.6392 21.7205L26.7353 22.8198V18.7493C26.7353 18.2461 26.5689 17.7468 26.2666 17.3432L23.923 14.2184V12.8878C24.4685 12.6943 24.8604 12.1734 24.8604 11.5623V9.40616C24.8603 8.6308 24.2295 8 23.4542 8H15.0171C14.2417 8 13.6109 8.6308 13.6109 9.40616V11.5623C13.6109 12.1733 14.0028 12.6944 14.5483 12.8879V14.2185L12.2045 17.3434C11.9024 17.7468 11.736 18.2461 11.736 18.7493V27.8271C11.736 29.1194 12.7873 30.1707 14.0796 30.1707H21.6125C22.6635 31.9325 24.9297 32.522 26.7061 31.4963L32.3891 28.2152C34.1682 27.1878 34.8028 24.8975 33.7615 23.093ZM14.5483 9.40616C14.5483 9.14769 14.7586 8.93741 15.017 8.93741H23.4541C23.7126 8.93741 23.9229 9.14769 23.9229 9.40616V11.5623C23.9229 11.8208 23.7126 12.031 23.4541 12.031H15.0171C14.7586 12.031 14.5484 11.8207 14.5484 11.5623L14.5483 9.40616ZM12.9547 17.9056L15.392 14.6559C15.4529 14.5748 15.4858 14.4761 15.4858 14.3747V12.9685H22.9854V13.906H18.7669C18.5081 13.906 18.2982 14.1159 18.2982 14.3747C18.2982 14.6336 18.5081 14.8435 18.7669 14.8435H23.2198L25.5163 17.9054C25.6664 18.1058 25.7597 18.3456 25.7878 18.5933H12.6834C12.7115 18.3455 12.8048 18.1058 12.9547 17.9056ZM14.0796 29.2333C13.3043 29.2333 12.6735 28.6025 12.6735 27.8271V27.3538H21.1895C21.0409 27.9615 21.0418 28.6106 21.212 29.2333L14.0796 29.2333ZM21.5571 26.4209H12.6734V19.5306H25.7978V23.3609L22.9563 25.0017C22.3638 25.3439 21.8849 25.8311 21.5571 26.4209ZM26.2375 30.6845C24.8923 31.4612 23.1734 31.0018 22.3961 29.6557C21.6151 28.2966 22.0884 26.5855 23.4251 25.8134L25.9693 24.3445L28.7817 29.2155L26.2375 30.6845ZM31.9203 27.4034L29.5936 28.7468L26.7812 23.8757L29.108 22.5324C30.454 21.7553 32.1723 22.2155 32.9496 23.5617C33.7303 24.9146 33.2555 26.6323 31.9203 27.4034Z" fill="#141414"/>
</svg>
