<svg width="40" height="40" viewBox="0 0 40 40" fill="none" xmlns="http://www.w3.org/2000/svg">
<circle cx="20" cy="20" r="20" fill="#fcda9b"/>
<g clip-path="url(#clip0_1_878)">
<path d="M11.5293 18.1545V29.1764H14.1475C13.3688 27.8414 12.9411 26.3063 12.9411 24.7123V20.7446H13.6293C14.409 20.7446 15.0411 20.1125 15.0411 19.3328V18.6446H24.9587V19.3328C24.9587 20.1125 25.5908 20.7446 26.3705 20.7446H27.0587V24.7123C27.0587 26.3063 26.6309 27.8414 25.8522 29.1764H28.4705C28.4705 29.1764 28.4705 21.5415 28.4705 18.1372L20.0005 13.6549C18.6414 14.3768 14.7667 16.4349 11.5293 18.1545Z" fill="#141414"/>
<path d="M20 8.04993C19.334 8.43049 8.66598 14.526 8 14.9066V18.4307C8.41544 18.21 19.4816 12.3321 19.9993 12.0571L19.9997 12.0572L20 12.0574C23.5525 13.9374 28.3374 16.4695 32 18.4078C32 18.013 32 15.3225 32 14.9066C31.334 14.526 20.666 8.43049 20 8.04993Z" fill="#141414"/>
<path d="M23.5471 20.7622C23.5471 20.5153 23.5471 20.3031 23.5471 20.0563C21.3712 20.0563 18.6307 20.0563 16.453 20.0563V20.7622C16.453 21.5309 15.8277 22.1563 15.0589 22.1563C14.812 22.1563 14.5999 22.1563 14.353 22.1563V24.7122C14.353 27.3065 15.6702 29.554 17.6206 30.8774C18.7993 31.6771 19.8783 31.9057 20.0001 31.95C20.1214 31.9059 21.2005 31.6774 22.3796 30.8774C24.3074 29.5693 25.6471 27.3323 25.6471 24.7123C25.6471 23.4424 25.6471 22.8987 25.6471 22.1563C25.4003 22.1563 25.1881 22.1563 24.9413 22.1563C24.1726 22.1563 23.5471 21.5309 23.5471 20.7622ZM19.2514 28.0957L17.2549 26.0992L18.2531 25.1009L19.2514 26.0992C20.012 25.3386 20.9411 24.4095 21.7471 23.6035L22.7453 24.6018C22.393 24.9541 19.6036 27.7435 19.2514 28.0957Z" fill="#141414"/>
</g>
<defs>
<clipPath id="clip0_1_878">
<rect width="24" height="24" fill="white" transform="translate(8 8)"/>
</clipPath>
</defs>
</svg>
