<svg width="42" height="42" viewBox="0 0 42 42" fill="none" xmlns="http://www.w3.org/2000/svg">
<path d="M9 9V8.5H8.5V9H9ZM33 9H33.5V8.5H33V9ZM33 33V33.5H33.5V33H33ZM9 33H8.5V33.5H9V33ZM21.5 20.2821C21.5 20.0059 21.2761 19.7821 21 19.7821C20.7239 19.7821 20.5 20.0059 20.5 20.2821H21.5ZM19.7542 21.9771L19.7611 21.4771L19.7611 21.4771L19.7542 21.9771ZM18.2127 20.9937L17.7532 21.1909L17.7532 21.191L18.2127 20.9937ZM18.0344 20.8759L18.0344 21.3759L18.0356 21.3759L18.0344 20.8759ZM16.1859 18.6243L16.6769 18.7189L16.677 18.7184L16.1859 18.6243ZM16.0944 18.4218L15.845 18.8551L15.8452 18.8552L16.0944 18.4218ZM16.0944 13.9267L15.8452 13.4932L15.845 13.4933L16.0944 13.9267ZM16.1859 13.7241L16.677 13.6301L16.6769 13.6295L16.1859 13.7241ZM18.0344 11.4725L18.0356 10.9725H18.0344V11.4725ZM18.2127 11.3546L17.7533 11.1573L17.7531 11.1577L18.2127 11.3546ZM19.7542 10.3714L19.7611 10.8713L19.7611 10.8713L19.7542 10.3714ZM21 12.0664L21.5 12.0664V12.0664H21ZM22.2458 10.3714L22.2389 10.8713L22.2389 10.8713L22.2458 10.3714ZM23.7873 11.3548L24.2468 11.1575L24.2468 11.1575L23.7873 11.3548ZM23.9656 11.4725L23.9656 10.9725L23.9644 10.9725L23.9656 11.4725ZM25.8141 13.7242L25.3231 13.6295L25.323 13.6301L25.8141 13.7242ZM25.9056 13.9267L26.155 13.4933L26.1548 13.4932L25.9056 13.9267ZM25.9056 18.4218L26.1548 18.8552L26.155 18.8551L25.9056 18.4218ZM25.8141 18.6244L25.323 18.7184L25.3231 18.719L25.8141 18.6244ZM23.9656 20.8759L23.9644 21.3759H23.9656V20.8759ZM23.7873 20.9938L24.2467 21.1911L24.2469 21.1907L23.7873 20.9938ZM22.2458 21.9771L22.2389 21.4771L22.2389 21.4771L22.2458 21.9771ZM24.3354 11.5752C24.4064 11.3084 24.2475 11.0345 23.9807 10.9635C23.7138 10.8926 23.4399 11.0514 23.369 11.3183L24.3354 11.5752ZM22.4869 11.8326C22.2203 11.761 21.946 11.9191 21.8744 12.1858C21.8027 12.4525 21.9609 12.7267 22.2276 12.7984L22.4869 11.8326ZM23.7405 21.3673C24.0072 21.4389 24.2815 21.2808 24.3531 21.0141C24.4247 20.7474 24.2666 20.4732 23.9999 20.4015L23.7405 21.3673ZM23.6483 19.7874C23.7193 19.5206 23.5605 19.2467 23.2936 19.1757C23.0267 19.1048 22.7529 19.2636 22.6819 19.5305L23.6483 19.7874ZM17.6646 20.7732C17.5936 21.0401 17.7525 21.3139 18.0193 21.3849C18.2862 21.4559 18.5601 21.297 18.631 21.0302L17.6646 20.7732ZM19.5131 20.5158C19.7797 20.5875 20.054 20.4293 20.1256 20.1627C20.1973 19.896 20.0391 19.6217 19.7724 19.5501L19.5131 20.5158ZM18.2595 10.9811C17.9928 10.9095 17.7185 11.0676 17.6469 11.3343C17.5753 11.601 17.7334 11.8753 18.0001 11.9469L18.2595 10.9811ZM18.3517 12.561C18.2807 12.8279 18.4395 13.1017 18.7064 13.1727C18.9733 13.2436 19.2471 13.0848 19.3181 12.8179L18.3517 12.561ZM17.3681 17.594C17.5633 17.7893 17.8799 17.7893 18.0752 17.594C18.2704 17.3987 18.2704 17.0822 18.0752 16.8869L17.3681 17.594ZM17.6779 17.1951L17.3121 17.536L17.3122 17.5361L17.6779 17.1951ZM18.3411 16.1836C18.6173 16.1836 18.8411 15.9597 18.8411 15.6836C18.8411 15.4075 18.6173 15.1836 18.3411 15.1836V16.1836ZM23.9248 16.8869C23.7296 17.0822 23.7296 17.3987 23.9248 17.594C24.1201 17.7893 24.4367 17.7893 24.6319 17.594L23.9248 16.8869ZM24.3221 17.1951L24.6878 17.5361L24.6879 17.536L24.3221 17.1951ZM23.6589 15.1836C23.3827 15.1836 23.1589 15.4075 23.1589 15.6836C23.1589 15.9597 23.3827 16.1836 23.6589 16.1836V15.1836ZM20.5 20.3197C20.5 20.5959 20.7239 20.8197 21 20.8197C21.2761 20.8197 21.5 20.5959 21.5 20.3197L20.5 20.3197ZM28.4241 19.3659C28.4241 19.6421 28.648 19.8659 28.9241 19.8659C29.2003 19.8659 29.4241 19.6421 29.4241 19.3659H28.4241ZM29.9089 14.8786L29.9261 14.3789C29.9204 14.3787 29.9146 14.3786 29.9089 14.3786V14.8786ZM30.1658 15.4834C30.3774 15.6608 30.6928 15.6331 30.8702 15.4215C31.0476 15.2099 31.0199 14.8945 30.8083 14.7171L30.1658 15.4834ZM12.5759 19.3659C12.5759 19.6421 12.7997 19.8659 13.0759 19.8659C13.352 19.8659 13.5759 19.6421 13.5759 19.3659H12.5759ZM12.0911 14.8786V14.3786C12.0854 14.3786 12.0796 14.3787 12.0739 14.3789L12.0911 14.8786ZM11.1917 14.7171C10.9801 14.8945 10.9524 15.2099 11.1298 15.4215C11.3072 15.6331 11.6226 15.6608 11.8342 15.4834L11.1917 14.7171ZM14.5568 24.8008C14.7476 25.0004 15.0642 25.0076 15.2638 24.8167C15.4634 24.6259 15.4705 24.3094 15.2797 24.1098L14.5568 24.8008ZM11.6145 20.9992L11.976 20.6537L11.9707 20.6484L11.6145 20.9992ZM11.3254 20.1003L11.8194 20.1773L11.8194 20.1772L11.3254 20.1003ZM11.6162 19.5247L11.9715 19.8764L11.9723 19.8756L11.6162 19.5247ZM11.7005 19.4481L12.0129 19.8386L12.0162 19.8359L11.7005 19.4481ZM13.1098 19.5263L12.7536 19.8772L12.7589 19.8824L13.1098 19.5263ZM16.4835 22.8505L16.8344 22.4944L16.8344 22.4944L16.4835 22.8505ZM17.8396 31.6288V32.1288C18.1157 32.1288 18.3396 31.905 18.3396 31.6288H17.8396ZM14.5446 31.6288H14.0446C14.0446 31.905 14.2685 32.1288 14.5446 32.1288V31.6288ZM14.5446 27.683H15.0446C15.0446 27.5318 14.9762 27.3887 14.8585 27.2938L14.5446 27.683ZM10.715 24.594L10.3767 24.9621C10.3846 24.9694 10.3927 24.9764 10.4011 24.9831L10.715 24.594ZM9.46961 21.8702L9.96952 21.8607L9.96952 21.8606L9.46961 21.8702ZM9.46876 21.7668L8.96877 21.7654L8.96877 21.7654L9.46876 21.7668ZM10.4628 13.1147L10.4864 12.6152L10.4863 12.6152L10.4628 13.1147ZM10.8686 19.9159C10.8686 20.192 11.0924 20.4159 11.3686 20.4159C11.6447 20.4159 11.8686 20.192 11.8686 19.9159H10.8686ZM28.3599 22.3845C28.1685 22.5835 28.1747 22.9 28.3737 23.0914C28.5728 23.2828 28.8893 23.2766 29.0807 23.0776L28.3599 22.3845ZM30.3855 20.9992L30.0292 20.6483L30.0251 20.6527L30.3855 20.9992ZM30.6746 20.1002L30.1806 20.1772L30.1806 20.1773L30.6746 20.1002ZM30.3838 19.5247L30.0251 19.873L30.0286 19.8765L30.3838 19.5247ZM30.2995 19.4481L29.9838 19.8359L29.9871 19.8386L30.2995 19.4481ZM28.8902 19.5263L29.2411 19.8825L29.2464 19.8771L28.8902 19.5263ZM25.5165 22.8505L25.1656 22.4943L25.1656 22.4943L25.5165 22.8505ZM24.1604 31.6288H23.6604C23.6604 31.905 23.8843 32.1288 24.1604 32.1288V31.6288ZM27.4554 31.6288V32.1288C27.7315 32.1288 27.9554 31.905 27.9554 31.6288H27.4554ZM27.4554 27.683L27.1415 27.2939C27.0238 27.3888 26.9554 27.5318 26.9554 27.683H27.4554ZM31.285 24.594L31.5989 24.9832C31.6073 24.9764 31.6154 24.9694 31.6233 24.9621L31.285 24.594ZM32.5304 21.8702L32.0305 21.8606L32.0305 21.8607L32.5304 21.8702ZM32.5312 21.7668L33.0312 21.7654L33.0312 21.7654L32.5312 21.7668ZM31.5372 13.1147L31.5606 13.6141L31.5607 13.6141L31.5372 13.1147ZM30.1314 19.9159C30.1314 20.192 30.3553 20.4159 30.6314 20.4159C30.9076 20.4159 31.1314 20.192 31.1314 19.9159H30.1314ZM40.5 21C40.5 31.7696 31.7696 40.5 21 40.5V41.5C32.3218 41.5 41.5 32.3218 41.5 21H40.5ZM21 40.5C10.2304 40.5 1.5 31.7696 1.5 21H0.5C0.5 32.3218 9.67816 41.5 21 41.5V40.5ZM1.5 21C1.5 10.2304 10.2304 1.5 21 1.5V0.5C9.67816 0.5 0.5 9.67816 0.5 21H1.5ZM21 1.5C31.7696 1.5 40.5 10.2304 40.5 21H41.5C41.5 9.67816 32.3218 0.5 21 0.5V1.5ZM9 9.5H33V8.5H9V9.5ZM32.5 9V33H33.5V9H32.5ZM33 32.5H9V33.5H33V32.5ZM9.5 33V9H8.5V33H9.5ZM20.5 20.2821C20.5 20.7253 20.4284 21.0391 20.3105 21.2265C20.2184 21.3727 20.0772 21.4815 19.7611 21.4771L19.7472 22.477C20.3818 22.4859 20.8635 22.225 21.1567 21.7593C21.424 21.3348 21.5 20.7944 21.5 20.2821H20.5ZM19.7611 21.4771C19.248 21.47 18.8455 21.2001 18.6721 20.7964L17.7532 21.191C18.0968 21.991 18.8774 22.465 19.7472 22.477L19.7611 21.4771ZM18.6721 20.7964C18.563 20.5423 18.3136 20.3753 18.0332 20.3759L18.0356 21.3759C17.9112 21.3762 17.8005 21.3012 17.7532 21.1909L18.6721 20.7964ZM18.0344 20.3759H18.0293V21.3759H18.0344V20.3759ZM18.0293 20.3759C17.5268 20.3759 17.1957 20.2385 16.9918 20.0415C16.7905 19.8472 16.6468 19.5309 16.6468 19.0347H15.6468C15.6468 19.7275 15.8529 20.3318 16.2971 20.7608C16.7386 21.1872 17.3487 21.3759 18.0293 21.3759V20.3759ZM16.6468 19.0347C16.6468 18.9264 16.6572 18.8209 16.6769 18.7189L15.695 18.5297C15.6634 18.6933 15.6468 18.8622 15.6468 19.0347H16.6468ZM16.677 18.7184C16.7314 18.4345 16.6047 18.1385 16.3437 17.9883L15.8452 18.8552C15.726 18.7867 15.6713 18.6531 15.6949 18.5302L16.677 18.7184ZM16.3439 17.9885C15.9579 17.7662 15.7298 17.5388 15.5897 17.2805C15.4472 17.0177 15.3693 16.6741 15.3693 16.1742H14.3693C14.3693 16.7724 14.4616 17.2979 14.7106 17.7571C14.962 18.2207 15.3465 18.5681 15.845 18.8551L16.3439 17.9885ZM15.3693 16.1742C15.3693 15.6744 15.4472 15.3307 15.5897 15.0679C15.7298 14.8095 15.9579 14.5822 16.3439 14.36L15.845 13.4933C15.3465 13.7803 14.962 14.1277 14.7106 14.5913C14.4616 15.0505 14.3693 15.5761 14.3693 16.1742H15.3693ZM16.3437 14.3601C16.6049 14.2099 16.7313 13.9138 16.677 13.6301L15.6949 13.8181C15.6714 13.6955 15.7259 13.5618 15.8452 13.4932L16.3437 14.3601ZM16.6769 13.6295C16.6572 13.5274 16.6468 13.422 16.6468 13.3138H15.6468C15.6468 13.4863 15.6634 13.6551 15.695 13.8187L16.6769 13.6295ZM16.6468 13.3138C16.6468 12.8176 16.7905 12.5013 16.9918 12.3069C17.1957 12.11 17.5268 11.9725 18.0293 11.9725V10.9725C17.3487 10.9725 16.7386 11.1612 16.2971 11.5876C15.8529 12.0166 15.6468 12.6209 15.6468 13.3138H16.6468ZM18.0293 11.9725H18.0344V10.9725H18.0293V11.9725ZM18.0332 11.9725C18.3137 11.9732 18.5632 11.806 18.6723 11.5516L17.7531 11.1577C17.8003 11.0475 17.911 10.9722 18.0356 10.9725L18.0332 11.9725ZM18.6721 11.552C18.8454 11.1484 19.248 10.8785 19.7611 10.8713L19.7472 9.87143C18.8774 9.88352 18.0969 10.3574 17.7533 11.1573L18.6721 11.552ZM19.7611 10.8713C20.0773 10.8669 20.2185 10.9758 20.3105 11.1219C20.4285 11.3093 20.5 11.6231 20.5 12.0664H21.5C21.5 11.5541 21.424 11.0137 21.1567 10.5892C20.8635 10.1234 20.3818 9.86258 19.7472 9.87143L19.7611 10.8713ZM21.5 12.0664C21.5 11.6231 21.5716 11.3094 21.6895 11.1219C21.7816 10.9758 21.9228 10.8669 22.2389 10.8713L22.2528 9.87142C21.6182 9.86257 21.1365 10.1234 20.8433 10.5892C20.576 11.0137 20.5 11.5541 20.5 12.0664H21.5ZM22.2389 10.8713C22.752 10.8784 23.1545 11.1484 23.3279 11.5521L24.2468 11.1575C23.9032 10.3574 23.1226 9.88345 22.2528 9.87142L22.2389 10.8713ZM23.3279 11.552C23.437 11.8062 23.6864 11.9732 23.9668 11.9725L23.9644 10.9725C24.0888 10.9722 24.1994 11.0473 24.2468 11.1575L23.3279 11.552ZM23.9656 11.9725H23.9707V10.9725H23.9656V11.9725ZM23.9707 11.9725C24.4731 11.9725 24.8043 12.1099 25.0082 12.3069C25.2095 12.5013 25.3532 12.8176 25.3532 13.3138H26.3532C26.3532 12.6209 26.1471 12.0166 25.7029 11.5876C25.2614 11.1612 24.6513 10.9725 23.9707 10.9725V11.9725ZM25.3532 13.3138C25.3532 13.422 25.3428 13.5276 25.3231 13.6295L26.305 13.8188C26.3366 13.6552 26.3532 13.4863 26.3532 13.3138H25.3532ZM25.323 13.6301C25.2686 13.9139 25.3953 14.21 25.6563 14.3601L26.1548 13.4932C26.274 13.5618 26.3287 13.6954 26.3051 13.8183L25.323 13.6301ZM25.6561 14.36C26.0421 14.5822 26.2702 14.8096 26.4103 15.068C26.5528 15.3308 26.6307 15.6744 26.6307 16.1742H27.6307C27.6307 15.5761 27.5384 15.0505 27.2894 14.5914C27.038 14.1278 26.6535 13.7803 26.155 13.4933L25.6561 14.36ZM26.6307 16.1742C26.6307 16.6741 26.5528 17.0177 26.4103 17.2805C26.2702 17.5389 26.0421 17.7663 25.6561 17.9884L26.155 18.8551C26.6535 18.5682 27.038 18.2208 27.2894 17.7571C27.5384 17.2979 27.6307 16.7724 27.6307 16.1742H26.6307ZM25.6563 17.9883C25.3951 18.1385 25.2687 18.4346 25.323 18.7184L26.3051 18.5304C26.3286 18.653 26.2741 18.7866 26.1548 18.8552L25.6563 17.9883ZM25.3231 18.719C25.3428 18.8211 25.3532 18.9264 25.3532 19.0347H26.3532C26.3532 18.8621 26.3366 18.6934 26.305 18.5298L25.3231 18.719ZM25.3532 19.0347C25.3532 19.5309 25.2095 19.8472 25.0082 20.0415C24.8043 20.2385 24.4731 20.3759 23.9707 20.3759V21.3759C24.6513 21.3759 25.2614 21.1872 25.7029 20.7608C26.1471 20.3318 26.3532 19.7275 26.3532 19.0347H25.3532ZM23.9707 20.3759H23.9656V21.3759H23.9707V20.3759ZM23.9668 20.3759C23.6863 20.3752 23.4368 20.5425 23.3277 20.7969L24.2469 21.1907C24.1997 21.301 24.089 21.3762 23.9644 21.3759L23.9668 20.3759ZM23.3279 20.7965C23.1546 21.2 22.752 21.47 22.2389 21.4771L22.2528 22.477C23.1225 22.4649 23.9031 21.9911 24.2467 21.1911L23.3279 20.7965ZM22.2389 21.4771C21.9227 21.4815 21.7815 21.3727 21.6895 21.2265C21.5715 21.0391 21.5 20.7254 21.5 20.2821H20.5C20.5 20.7944 20.576 21.3348 20.8433 21.7593C21.1365 22.225 21.6182 22.4859 22.2528 22.477L22.2389 21.4771ZM23.369 11.3183C23.2654 11.7076 22.8693 11.9353 22.4869 11.8326L22.2276 12.7984C23.1482 13.0456 24.0907 12.4954 24.3354 11.5752L23.369 11.3183ZM23.9999 20.4015C23.7367 20.3308 23.5767 20.0571 23.6483 19.7874L22.6819 19.5305C22.4696 20.329 22.9409 21.1525 23.7405 21.3673L23.9999 20.4015ZM18.631 21.0302C18.7346 20.6408 19.1307 20.4131 19.5131 20.5158L19.7724 19.5501C18.8518 19.3028 17.9093 19.8531 17.6646 20.7732L18.631 21.0302ZM18.0001 11.9469C18.2633 12.0176 18.4233 12.2914 18.3517 12.561L19.3181 12.8179C19.5304 12.0195 19.0591 11.1959 18.2595 10.9811L18.0001 11.9469ZM18.0752 16.8869C18.0643 16.8761 18.0538 16.8651 18.0435 16.8541L17.3122 17.5361C17.3304 17.5557 17.3491 17.575 17.3681 17.594L18.0752 16.8869ZM18.0436 16.8542C17.8109 16.6046 17.9865 16.1836 18.3411 16.1836V15.1836C17.1258 15.1836 16.4743 16.6372 17.3121 17.536L18.0436 16.8542ZM24.6319 17.594C24.6509 17.575 24.6696 17.5557 24.6878 17.5361L23.9565 16.8541C23.9462 16.8651 23.9357 16.8761 23.9248 16.8869L24.6319 17.594ZM24.6879 17.536C25.5257 16.6372 24.8742 15.1836 23.6589 15.1836V16.1836C24.0135 16.1836 24.1891 16.6046 23.9564 16.8542L24.6879 17.536ZM20.5 12.0664L20.5 20.3197L21.5 20.3197L21.5 12.0664L20.5 12.0664ZM29.4241 19.3659V15.8298H28.4241V19.3659H29.4241ZM29.4241 15.8298C29.4241 15.5803 29.6263 15.3781 29.8758 15.3781V14.3781C29.074 14.3781 28.4241 15.0281 28.4241 15.8298H29.4241ZM29.8758 15.3781C29.8731 15.3781 29.8714 15.378 29.8724 15.378C29.8728 15.378 29.8737 15.3781 29.875 15.3781C29.8776 15.3781 29.8811 15.3782 29.8847 15.3783C29.8883 15.3783 29.8918 15.3784 29.8946 15.3784C29.8959 15.3785 29.8972 15.3785 29.8982 15.3785C29.8986 15.3785 29.8992 15.3785 29.8998 15.3785C29.9001 15.3785 29.9007 15.3786 29.9013 15.3786C29.9016 15.3786 29.9022 15.3786 29.903 15.3786C29.9032 15.3786 29.9057 15.3786 29.9089 15.3786V14.3786C29.9121 14.3786 29.9146 14.3787 29.9147 14.3787C29.9154 14.3787 29.916 14.3787 29.9162 14.3787C29.9168 14.3787 29.9171 14.3787 29.9171 14.3787C29.9173 14.3787 29.9172 14.3787 29.9169 14.3787C29.9162 14.3787 29.9152 14.3787 29.9138 14.3786C29.9111 14.3786 29.9073 14.3785 29.9033 14.3784C29.8994 14.3784 29.895 14.3783 29.891 14.3782C29.8891 14.3782 29.887 14.3781 29.8849 14.3781C29.8835 14.3781 29.8798 14.3781 29.8758 14.3781V15.3781ZM29.8918 15.3783C29.996 15.3819 30.0907 15.4205 30.1658 15.4834L30.8083 14.7171C30.5683 14.5159 30.2613 14.3904 29.9261 14.3789L29.8918 15.3783ZM13.5759 19.3659V15.8298H12.5759V19.3659H13.5759ZM13.5759 15.8298C13.5759 15.0281 12.926 14.3781 12.1242 14.3781V15.3781C12.3737 15.3781 12.5759 15.5803 12.5759 15.8298H13.5759ZM12.1242 14.3781C12.1202 14.3781 12.1165 14.3781 12.1151 14.3781C12.113 14.3781 12.1109 14.3782 12.109 14.3782C12.105 14.3783 12.1006 14.3784 12.0967 14.3784C12.0927 14.3785 12.0889 14.3786 12.0862 14.3786C12.0848 14.3787 12.0838 14.3787 12.0831 14.3787C12.0828 14.3787 12.0827 14.3787 12.0829 14.3787C12.0829 14.3787 12.0832 14.3787 12.0838 14.3787C12.084 14.3787 12.0846 14.3787 12.0853 14.3787C12.0854 14.3787 12.0879 14.3786 12.0911 14.3786V15.3786C12.0943 15.3786 12.0968 15.3786 12.097 15.3786C12.0978 15.3786 12.0984 15.3786 12.0987 15.3786C12.0993 15.3786 12.0999 15.3785 12.1002 15.3785C12.1008 15.3785 12.1014 15.3785 12.1018 15.3785C12.1028 15.3785 12.1041 15.3785 12.1054 15.3784C12.1082 15.3784 12.1117 15.3783 12.1153 15.3783C12.1189 15.3782 12.1224 15.3781 12.125 15.3781C12.1263 15.3781 12.1272 15.378 12.1276 15.378C12.1286 15.378 12.1269 15.3781 12.1242 15.3781V14.3781ZM12.0739 14.3789C11.7387 14.3904 11.4317 14.5159 11.1917 14.7171L11.8342 15.4834C11.9093 15.4205 12.004 15.3819 12.1082 15.3783L12.0739 14.3789ZM15.2797 24.1098L11.9759 20.6537L11.2531 21.3447L14.5568 24.8008L15.2797 24.1098ZM11.9707 20.6484C11.8441 20.5198 11.7933 20.3448 11.8194 20.1773L10.8314 20.0232C10.7586 20.4899 10.9 20.9863 11.2583 21.3501L11.9707 20.6484ZM11.8194 20.1772C11.8366 20.067 11.887 19.9618 11.9715 19.8764L11.2608 19.1729C11.0234 19.4128 10.8798 19.7124 10.8314 20.0233L11.8194 20.1772ZM11.9723 19.8756C11.968 19.88 11.9646 19.8833 11.9635 19.8843C11.962 19.8858 11.9608 19.8869 11.9601 19.8875C11.9589 19.8887 11.958 19.8896 11.9578 19.8897C11.9574 19.8901 11.9576 19.8899 11.9585 19.8891C11.9603 19.8874 11.9632 19.8848 11.967 19.8813C11.9747 19.8744 11.9848 19.8652 11.995 19.8559C12.0052 19.8467 12.0153 19.8375 12.0229 19.8307C12.0267 19.8273 12.0298 19.8244 12.032 19.8225C12.0331 19.8215 12.0339 19.8208 12.0343 19.8204C12.0346 19.8202 12.0346 19.8201 12.0346 19.8202C12.0346 19.8202 12.0343 19.8204 12.0339 19.8208C12.0337 19.8209 12.0331 19.8215 12.0324 19.8221C12.0321 19.8224 12.0311 19.8233 12.0299 19.8243C12.0292 19.8249 12.0275 19.8264 12.0264 19.8273C12.0245 19.829 12.0177 19.8346 12.0129 19.8386L11.3882 19.0577C11.3722 19.0705 11.3304 19.1087 11.3239 19.1146C11.3151 19.1225 11.2749 19.1586 11.26 19.1738L11.9723 19.8756ZM12.0162 19.8359C12.233 19.6593 12.5534 19.6739 12.7536 19.8772L13.466 19.1754C12.9004 18.6011 11.9977 18.5614 11.3849 19.0604L12.0162 19.8359ZM12.7589 19.8824L16.1325 23.2067L16.8344 22.4944L13.4608 19.1701L12.7589 19.8824ZM16.1325 23.2067C16.9047 23.9675 17.3396 25.0064 17.3396 26.0905H18.3396C18.3396 24.7386 17.7973 23.4432 16.8344 22.4944L16.1325 23.2067ZM17.3396 26.0905V31.6288H18.3396V26.0905H17.3396ZM17.8396 31.1288H14.5446V32.1288H17.8396V31.1288ZM15.0446 31.6288V27.683H14.0446V31.6288H15.0446ZM14.8585 27.2938L11.0289 24.2048L10.4011 24.9831L14.2307 28.0722L14.8585 27.2938ZM11.0534 24.2258C10.3846 23.6111 9.98663 22.7571 9.96952 21.8607L8.9697 21.8797C8.99225 23.0611 9.5155 24.1706 10.3767 24.9621L11.0534 24.2258ZM9.96952 21.8606C9.96893 21.8301 9.96868 21.7992 9.96876 21.7682L8.96877 21.7654C8.96866 21.8037 8.96897 21.8418 8.9697 21.8798L9.96952 21.8606ZM9.96876 21.7682C9.97317 20.1814 9.98001 15.0189 9.98001 13.8969H8.98001C8.98001 15.0179 8.97317 20.1796 8.96877 21.7654L9.96876 21.7682ZM9.98001 13.8969C9.98001 13.8531 10.0013 13.7881 10.0904 13.7205C10.1821 13.6509 10.3126 13.6081 10.4394 13.6141L10.4863 12.6152C10.1246 12.5982 9.76372 12.7131 9.48605 12.9238C9.20587 13.1363 8.98001 13.4739 8.98001 13.8969H9.98001ZM10.4393 13.6141C10.6661 13.6248 10.8686 13.8279 10.8686 14.0922H11.8686C11.8686 13.3315 11.2833 12.6527 10.4864 12.6152L10.4393 13.6141ZM10.8686 14.0922V19.9159H11.8686V14.0922H10.8686ZM29.0807 23.0776L30.7459 21.3458L30.0251 20.6527L28.3599 22.3845L29.0807 23.0776ZM30.7417 21.3501C31.1 20.9863 31.2414 20.4899 31.1686 20.0232L30.1806 20.1773C30.2067 20.3448 30.1559 20.5197 30.0293 20.6483L30.7417 21.3501ZM31.1686 20.0233C31.1202 19.7124 30.9766 19.4127 30.7391 19.1729L30.0286 19.8765C30.113 19.9618 30.1634 20.067 30.1806 20.1772L31.1686 20.0233ZM30.7426 19.1764C30.7261 19.1595 30.6835 19.1213 30.6762 19.1147C30.6696 19.1087 30.6279 19.0705 30.6118 19.0577L29.9871 19.8386C29.9823 19.8346 29.9755 19.829 29.9736 19.8273C29.9725 19.8264 29.9708 19.8249 29.9701 19.8243C29.9689 19.8232 29.9679 19.8224 29.9676 19.8221C29.9669 19.8214 29.9663 19.8209 29.9661 19.8208C29.9657 19.8204 29.9654 19.8202 29.9654 19.8202C29.9654 19.8201 29.9654 19.8201 29.9657 19.8204C29.9661 19.8208 29.9669 19.8215 29.968 19.8225C29.9702 19.8244 29.9733 19.8272 29.9771 19.8307C29.9846 19.8375 29.9948 19.8467 30.0049 19.8559C30.0152 19.8652 30.0252 19.8743 30.0328 19.8812C30.0366 19.8847 30.0394 19.8872 30.0411 19.8887C30.042 19.8896 30.042 19.8896 30.0415 19.8891C30.0413 19.8889 30.0403 19.888 30.0388 19.8866C30.0381 19.8859 30.0367 19.8846 30.035 19.8829C30.0337 19.8817 30.0299 19.878 30.0251 19.873L30.7426 19.1764ZM30.6151 19.0604C30.0023 18.5614 29.0996 18.6011 28.534 19.1754L29.2464 19.8771C29.4466 19.6738 29.767 19.6593 29.9838 19.8359L30.6151 19.0604ZM28.5392 19.1701L25.1656 22.4943L25.8675 23.2066L29.2411 19.8824L28.5392 19.1701ZM25.1656 22.4943C24.2027 23.4432 23.6604 24.7386 23.6604 26.0905H24.6604C24.6604 25.0064 25.0953 23.9675 25.8675 23.2066L25.1656 22.4943ZM23.6604 26.0905V31.6288H24.6604V26.0905H23.6604ZM24.1604 32.1288H27.4554V31.1288H24.1604V32.1288ZM27.9554 31.6288V27.683H26.9554V31.6288H27.9554ZM27.7693 28.0722L31.5989 24.9832L30.9711 24.2048L27.1415 27.2939L27.7693 28.0722ZM31.6233 24.9621C32.4845 24.1706 33.0078 23.0611 33.0303 21.8797L32.0305 21.8607C32.0134 22.7571 31.6154 23.6111 30.9466 24.2259L31.6233 24.9621ZM33.0303 21.8798C33.031 21.8418 33.0313 21.8037 33.0312 21.7654L32.0312 21.7681C32.0313 21.7992 32.0311 21.83 32.0305 21.8606L33.0303 21.8798ZM33.0312 21.7654C33.0268 20.1796 33.02 15.0179 33.02 13.8969H32.02C32.02 15.0188 32.0268 20.1814 32.0312 21.7682L33.0312 21.7654ZM33.02 13.8969C33.02 13.4739 32.7941 13.1363 32.514 12.9238C32.2363 12.7131 31.8754 12.5982 31.5136 12.6153L31.5607 13.6141C31.6874 13.6082 31.8179 13.651 31.9096 13.7205C31.9987 13.7881 32.02 13.8531 32.02 13.8969H33.02ZM31.5137 12.6152C30.7167 12.6527 30.1314 13.3315 30.1314 14.0922H31.1314C31.1314 13.8279 31.3339 13.6248 31.5606 13.6141L31.5137 12.6152ZM30.1314 14.0922V19.9159H31.1314V14.0922H30.1314Z" fill="#141414"/>
</svg>
