<svg width="40" height="40" viewBox="0 0 40 40" fill="none" xmlns="http://www.w3.org/2000/svg">
<path d="M40 20C40 31.0457 31.0457 40 20 40C8.9543 40 0 31.0457 0 20C0 8.9543 8.9543 0 20 0C31.0457 0 40 8.9543 40 20Z" fill="#fcda9b"/>
<path d="M29.528 22.928L29.168 24.32C29.072 24.656 28.904 24.944 28.64 25.184C28.568 25.256 28.472 25.328 28.376 25.4L27.944 26.96C27.92 27.08 27.848 27.2 27.776 27.296C27.536 27.608 27.152 27.728 26.768 27.632L25.832 27.392C25.328 27.248 25.016 26.72 25.16 26.216L25.4 25.28L17.984 23.288L17.744 24.224C17.6 24.728 17.072 25.04 16.568 24.896L15.632 24.656C15.248 24.56 14.984 24.224 14.936 23.864C14.912 23.744 14.936 23.6 14.96 23.48L15.368 21.92C15.32 21.824 15.272 21.704 15.248 21.608C15.152 21.272 15.152 20.912 15.224 20.576L15.584 19.184C15.728 18.608 16.136 18.152 16.688 17.912C16.856 17.84 17.048 17.792 17.24 17.768L17.792 17.048L18.752 15.752C18.848 15.608 18.968 15.488 19.088 15.368C19.328 15.128 19.592 14.936 19.88 14.792C20.024 14.72 20.168 14.648 20.336 14.6C20.648 14.504 20.96 14.432 21.296 14.432C21.632 14.408 21.968 14.456 22.304 14.552L25.976 15.536C26.312 15.632 26.624 15.752 26.912 15.92C27.776 16.448 28.328 17.36 28.448 18.368L28.64 19.976L28.736 20.888C29.048 21.104 29.288 21.416 29.408 21.776C29.624 22.136 29.624 22.544 29.528 22.928ZM18.08 19.352C17.6 19.184 17.096 19.448 16.928 19.928C16.928 19.952 16.904 20 16.904 20.024C16.736 20.504 17 21.008 17.48 21.176C17.504 21.176 17.552 21.2 17.576 21.2C18.128 21.344 18.944 21.656 19.088 21.104C19.232 20.552 18.632 19.496 18.08 19.352ZM26.792 20.192L26.6 18.584C26.576 18.44 26.528 18.296 26.48 18.176C26.312 17.768 25.952 17.48 25.544 17.384L21.848 16.4C21.272 16.256 20.672 16.448 20.312 16.928L19.352 18.224L24.512 19.616L26.792 20.192ZM27.344 21.824C26.792 21.68 25.736 22.28 25.592 22.832C25.448 23.384 26.312 23.528 26.864 23.672C27.368 23.864 27.92 23.6 28.088 23.096C28.256 22.592 28.016 22.04 27.512 21.872C27.464 21.848 27.392 21.848 27.344 21.824Z" fill="#141414"/>
<path d="M14.696 18.944L14.312 20.336C14.216 20.672 14.192 21.032 14.24 21.368L13.184 22.232C13.064 22.328 12.896 22.304 12.8 22.184C12.752 22.112 12.728 22.04 12.752 21.968L13.208 19.664C13.232 19.52 13.136 19.376 12.992 19.352H12.968L10.64 19.136C10.496 19.112 10.376 18.992 10.4 18.848C10.4 18.776 10.448 18.704 10.52 18.656L12.464 17.36C12.584 17.264 12.632 17.096 12.536 16.976C12.536 16.976 12.536 16.952 12.512 16.952L11.024 15.152C10.928 15.032 10.952 14.864 11.072 14.768C11.144 14.72 11.216 14.696 11.288 14.72L13.592 15.176C13.736 15.2 13.88 15.104 13.904 14.96V14.936L14.12 12.584C14.144 12.44 14.264 12.32 14.408 12.344C14.48 12.344 14.552 12.392 14.6 12.464L15.896 14.408C15.968 14.528 16.136 14.576 16.28 14.48C16.28 14.48 16.304 14.48 16.304 14.456L18.104 12.968C18.224 12.872 18.392 12.896 18.488 13.016C18.536 13.088 18.56 13.16 18.536 13.232L18.2 14.912C18.128 15.008 18.032 15.104 17.96 15.2L17 16.496L16.688 16.928C15.752 17.168 14.96 17.96 14.696 18.944Z" fill="#141414"/>
</svg>
