<svg width="40" height="40" viewBox="0 0 40 40" fill="none" xmlns="http://www.w3.org/2000/svg">
<circle cx="20" cy="20" r="20" fill="#fcda9b"/>
<path d="M28.4839 24.9186C27.7774 24.9186 27.121 24.5677 26.7289 23.9793L25.8088 22.5993C24.9831 24.4087 23.2775 25.7878 21.2661 26.1977C21.2503 26.2005 21.2352 26.2039 21.2201 26.208C20.425 26.3646 19.5949 26.366 18.7614 26.2067C16.5464 25.7624 14.7198 24.1936 13.9858 22.1063H14.3285C14.888 22.1063 15.2247 21.4809 14.9135 21.0132L12.1011 16.7947C11.8402 16.4034 11.192 16.4034 10.9312 16.7947L8.11887 21.0133C7.80865 21.477 8.14133 22.1063 8.70383 22.1063H9.6184C10.5798 26.821 14.8327 30.5433 20.0422 30.5433C22.8927 30.5433 25.7074 29.3646 27.7246 27.2248C28.433 26.4665 29.0264 25.5992 29.4928 24.6601C29.1878 24.8263 28.8428 24.9186 28.4839 24.9186Z" fill="#141414"/>
<path d="M31.2963 17.8878H30.3824C29.2935 12.5282 24.1142 8.82809 18.5802 9.54561C14.8994 10.0869 12.0134 12.343 10.5198 15.3597C11.4345 14.9111 12.6808 15.1285 13.2712 16.0148L14.1951 17.4005C15.0052 15.6277 16.6605 14.2686 18.6202 13.8296C21.9071 13.1397 24.9698 14.9605 26.0122 17.8878H25.6716C25.109 17.8878 24.7764 18.5171 25.0866 18.9809L27.8989 23.1994C28.177 23.6164 28.7909 23.6164 29.0689 23.1994L31.8812 18.9809C32.1926 18.5133 31.8557 17.8878 31.2963 17.8878Z" fill="#141414"/>
<path d="M21.492 19.9126C21.0945 19.5137 20.5644 19.294 20 19.294C19.8119 19.294 19.6354 19.2212 19.5023 19.0873C19.2327 18.8191 19.2237 18.3715 19.5036 18.0931C19.7673 17.828 20.2328 17.828 20.4965 18.0931C20.7705 18.3691 21.2154 18.3677 21.4907 18.0944C21.7661 17.8204 21.7661 17.3748 21.4921 17.1002C21.2688 16.8762 20.9945 16.7312 20.7032 16.6331V15.7785C20.7032 15.3899 20.3887 15.0754 20.0001 15.0754C19.6115 15.0754 19.297 15.3899 19.297 15.7785V16.633C19.006 16.731 18.732 16.8756 18.5095 17.0988C17.6823 17.9232 17.6843 19.2605 18.5081 20.0815C18.9056 20.4804 19.4357 20.7001 20.0001 20.7001C20.1882 20.7001 20.3647 20.7729 20.4979 20.9067C20.7674 21.1749 20.7764 21.6225 20.4965 21.901C20.2328 22.166 19.7673 22.166 19.5036 21.901C19.229 21.6256 18.7841 21.6256 18.5094 21.8996C18.2341 22.1736 18.2341 22.6192 18.5081 22.8938C18.7335 23.1201 19.0042 23.281 19.297 23.3846V24.2155C19.297 24.6041 19.6114 24.9186 20 24.9186C20.3886 24.9186 20.7031 24.6041 20.7031 24.2155V23.3848C20.9957 23.2814 21.266 23.1206 21.4907 22.8952C22.3179 22.0709 22.3159 20.7335 21.492 19.9126Z" fill="#141414"/>
</svg>
