<svg width="40" height="40" viewBox="0 0 40 40" fill="none" xmlns="http://www.w3.org/2000/svg">
<circle cx="20" cy="20" r="20" fill="#fcda9b"/>
<mask id="mask0_1_500" style="mask-type:luminance" maskUnits="userSpaceOnUse" x="8" y="8" width="24" height="24">
<path d="M8 8H32V32H8V8Z" fill="white"/>
</mask>
<g mask="url(#mask0_1_500)">
<path d="M30.0038 28.604C30.0038 30.2206 28.6933 31.5312 27.0766 31.5312C25.4599 31.5312 24.1493 30.2206 24.1493 28.604C24.1493 26.9872 25.4599 25.6767 27.0766 25.6767C28.6933 25.6767 30.0038 26.9872 30.0038 28.604Z" stroke="#141414" stroke-miterlimit="10" stroke-linecap="round" stroke-linejoin="round"/>
<path d="M25.9491 28.6064L26.702 29.3594L28.1192 27.9422" stroke="#141414" stroke-miterlimit="10" stroke-linecap="round" stroke-linejoin="round"/>
<path d="M13.3515 11.019C12.3441 11.1868 11.2248 11.2909 9.99622 11.2909V19.8601C9.99622 25.0241 13.2969 29.6511 18.2177 31.2177C18.5916 31.3368 19.3672 31.5261 19.8476 31.5261C20.3982 31.5261 21.1036 31.3368 21.4775 31.2177C22.5348 30.8813 23.5171 30.4032 24.408 29.809C24.2416 29.4416 24.1493 29.0339 24.1493 28.6041C24.1493 26.9873 25.4596 25.6765 27.0764 25.6765C27.4354 25.6765 27.7799 25.7411 28.0976 25.8597C29.1244 24.0756 29.699 22.0145 29.699 19.8601V11.2909C23.2945 11.2909 19.8476 8.46878 19.8476 8.46878C19.8476 8.46878 18.9693 9.18747 17.2765 9.89955" stroke="#141414" stroke-miterlimit="10" stroke-linecap="round" stroke-linejoin="round"/>
<path d="M27.5901 13.3046V19.8601C27.5901 21.9559 26.9443 23.9598 25.7226 25.6544C24.5242 27.3189 22.7944 28.5858 20.8379 29.2081C20.6659 29.2625 20.1138 29.4059 19.8476 29.4059C19.4506 29.3632 19.0294 29.2625 18.8574 29.2081C16.9006 28.585 15.1725 27.3205 13.9727 25.6544C12.7509 23.9598 12.1051 21.9559 12.1051 19.8601V13.3046C14.2398 13.1069 16.6726 12.6026 18.4342 11.7984C18.9872 11.5459 19.4573 11.2913 19.8476 11.0561C20.238 11.2913 20.7081 11.5459 21.2611 11.7984C23.0227 12.6026 25.4554 13.1069 27.5901 13.3046Z" stroke="#141414" stroke-miterlimit="10" stroke-linecap="round" stroke-linejoin="round"/>
<path d="M14.4629 14.9606V17.4271" stroke="#141414" stroke-miterlimit="10" stroke-linecap="round" stroke-linejoin="round"/>
<path d="M18.6144 14.9606V17.4271" stroke="#141414" stroke-miterlimit="10" stroke-linecap="round" stroke-linejoin="round"/>
<path d="M16.5386 14.9606L16.5386 17.4271" stroke="#141414" stroke-miterlimit="10" stroke-linecap="round" stroke-linejoin="round"/>
<path d="M18.6146 17.4274V18.3324C18.6146 19.01 18.2744 19.6216 17.7584 20.0026C17.4936 20.1976 17.3474 20.5153 17.3746 20.8434L17.6758 28.7417C16.8788 28.367 16.1218 27.8626 15.4572 27.2841L15.7039 20.8354C15.7301 20.5092 15.5858 20.1924 15.3229 19.997C14.8069 19.6136 14.4629 19.0016 14.4629 18.3324V17.4274C14.522 18.0602 14.8681 18.4062 15.5009 18.4654C16.0741 18.4654 16.5385 18.0006 16.5385 17.4274C16.5385 18.0006 17.0034 18.4654 17.5761 18.4654C18.2089 18.4061 18.555 18.0601 18.6146 17.4274Z" stroke="#141414" stroke-miterlimit="10" stroke-linecap="round" stroke-linejoin="round"/>
<path d="M25.2745 17.7813C25.2745 16.9076 24.8897 16.0718 24.2091 15.4669L23.9454 15.2327C23.5372 14.87 22.8692 14.87 22.4611 15.2327L22.1974 15.4669C21.5168 16.0718 21.132 16.9076 21.132 17.7813V18.3754C21.132 19.1011 21.5052 19.7395 22.0702 20.1094C22.2721 20.2416 22.3936 20.4663 22.3821 20.7073C22.3006 22.4181 21.9987 28.7516 21.9987 28.7516C22.8409 28.3558 23.648 27.8213 24.351 27.1839C24.351 27.1839 24.0875 22.2203 24.0077 20.7184C23.9948 20.4758 24.1178 20.2496 24.3221 20.1182C24.895 19.7499 25.2745 19.1071 25.2745 18.3754V17.7813Z" stroke="#141414" stroke-miterlimit="10" stroke-linecap="round" stroke-linejoin="round"/>
</g>
</svg>
