<svg width="40" height="40" viewBox="0 0 40 40" fill="none" xmlns="http://www.w3.org/2000/svg">
<circle cx="20" cy="20" r="20" fill="#fcda9b"/>
<path d="M30.6278 30.7711L29.5661 24.5553C29.4516 23.8856 28.9766 23.3476 28.3261 23.1514L25.4624 22.2874C25.4031 21.5873 25.1161 20.9269 24.6384 20.4042C24.2563 19.986 23.7758 19.6816 23.246 19.5136C23.3367 19.413 23.4207 19.3127 23.4978 19.2147C24.1788 18.3485 24.5434 17.3944 24.6363 16.7432H24.8572C25.4318 16.7432 25.8993 16.2758 25.8993 15.7011V15.167C25.8993 14.7835 25.6835 14.436 25.3591 14.2557V12.9711C25.3591 12.777 25.2018 12.6196 25.0076 12.6196C24.8135 12.6196 24.6562 12.7769 24.6562 12.9711V14.4132C24.5193 14.4369 24.356 14.478 24.189 14.5483C24.1719 14.5546 24.1552 14.5618 24.1395 14.5705C24.1017 14.5877 24.064 14.6058 24.0263 14.6263V11.794C24.0263 11.0115 23.3898 10.3749 22.6073 10.3749H21.6372C21.3026 10.3749 20.9757 10.4915 20.7167 10.7033L20.6215 10.7811C20.4467 10.9241 20.226 11.0028 20.0001 11.0028C19.7742 11.0028 19.5535 10.9241 19.3786 10.7811L19.2835 10.7033C19.0244 10.4915 18.6976 10.3749 18.363 10.3749H17.3928C16.6103 10.3749 15.9738 11.0115 15.9738 11.794V14.6263C15.9361 14.6058 15.8983 14.5877 15.8606 14.5705C15.8448 14.5618 15.8283 14.5546 15.8111 14.5483C15.6441 14.478 15.4807 14.4369 15.3439 14.4132V10.7668C15.3439 9.62877 16.2698 8.70289 17.4078 8.70289H22.5922C23.7303 8.70289 24.6561 9.62877 24.6561 10.7668V11.3193C24.6561 11.5134 24.8135 11.6707 25.0076 11.6707C25.2016 11.6707 25.359 11.5134 25.359 11.3193V10.7668C25.359 9.2412 24.1178 8 22.5922 8H17.4078C15.8822 8 14.641 9.2412 14.641 10.7668V14.2557C14.3166 14.436 14.1009 14.7835 14.1009 15.167V15.7012C14.1009 16.2758 14.5683 16.7433 15.1429 16.7433H15.3639C15.4566 17.3944 15.8213 18.3486 16.5023 19.2147C16.5793 19.3127 16.6633 19.4128 16.7538 19.5133C15.536 19.9002 14.6479 20.9951 14.5377 22.2874L11.674 23.1514C11.0235 23.3476 10.5483 23.8856 10.434 24.5553L10.0028 27.0795C9.97015 27.2708 10.0988 27.4524 10.2901 27.485C10.4813 27.5178 10.663 27.3891 10.6957 27.1978L11.1268 24.6736C11.196 24.2684 11.4835 23.943 11.877 23.8243L14.5256 23.0252V23.7204C13.9185 23.8321 13.4019 24.2492 13.1891 24.827C13.1327 24.9804 13.0976 25.141 13.0848 25.3043L12.8288 28.59C12.8095 28.8375 12.8951 29.084 13.0637 29.2661C13.2322 29.4482 13.4712 29.5527 13.7194 29.5527H14.1576C14.3517 29.5527 14.5091 29.3954 14.5091 29.2013C14.5091 29.0071 14.3517 28.8499 14.1576 28.8499H13.7194C13.6665 28.8499 13.6156 28.8276 13.5796 28.7887C13.5437 28.7499 13.5255 28.6974 13.5296 28.6447L13.7856 25.3589C13.7933 25.26 13.8146 25.1627 13.8488 25.0699C13.9968 24.6679 14.3966 24.3957 14.8436 24.3926L14.9015 24.3921C14.9042 24.3921 14.9069 24.3921 14.9096 24.3921C15.344 24.3921 15.7286 24.6385 15.8909 25.0215C15.9364 25.1289 15.9641 25.2424 15.9731 25.3589L16.2292 28.6447C16.2333 28.6974 16.2151 28.7499 16.1792 28.7888C16.1433 28.8276 16.0923 28.8499 16.0394 28.8499H15.6012C15.4071 28.8499 15.2497 29.0072 15.2497 29.2013C15.2497 29.3954 15.4071 29.5527 15.6012 29.5527H16.0394C16.2876 29.5527 16.5266 29.4483 16.6951 29.2661C16.8637 29.0839 16.9493 28.8374 16.93 28.59L16.6739 25.3043C16.6589 25.112 16.6132 24.9245 16.5381 24.7472C16.3066 24.2008 15.8115 23.8209 15.2285 23.7181V22.8131L16.4366 22.4486C16.5466 22.6801 16.7644 23.1804 17.1959 24.2588C17.6307 25.347 18.1713 26.7418 18.6896 28.0977C18.6933 28.109 18.6976 28.1202 18.7024 28.131C19.0483 29.0362 19.3839 29.9228 19.6709 30.6876C19.7224 30.8248 19.8535 30.9156 20 30.9156C20.1465 30.9156 20.2776 30.8248 20.3291 30.6876C20.616 29.9228 20.9516 29.0362 21.2976 28.131C21.3024 28.1202 21.3066 28.109 21.3103 28.0977C21.8283 26.7425 22.3686 25.3487 22.8033 24.2608C23.2353 23.181 23.4533 22.6803 23.5633 22.4486L24.7714 22.8131V24.889C23.9343 25.0516 23.3003 25.7899 23.3003 26.6738C23.3003 27.6765 24.116 28.4923 25.1188 28.4923C26.1215 28.4923 26.9373 27.6766 26.9373 26.6738C26.9373 25.7928 26.3074 25.0563 25.4743 24.8905V23.0252L28.1231 23.8244C28.5166 23.9431 28.804 24.2685 28.8732 24.6737L29.9349 30.8894C29.9525 30.9925 29.9251 31.0933 29.8577 31.1732C29.7903 31.2531 29.6955 31.2972 29.5909 31.2972H10.409C10.3045 31.2972 10.2098 31.2531 10.1423 31.1732C10.0749 31.0933 10.0474 30.9926 10.0651 30.8894L10.4155 28.8381C10.4481 28.6467 10.3195 28.4652 10.1282 28.4325C9.93696 28.3997 9.75532 28.5285 9.7226 28.7198L9.37221 30.7711C9.31994 31.0773 9.40483 31.3891 9.60508 31.6265C9.80543 31.8639 10.0984 32 10.409 32H29.5909C29.9015 32 30.1946 31.8639 30.3949 31.6265C30.5951 31.389 30.68 31.0773 30.6278 30.7711ZM24.6603 15.1292C24.8476 15.0825 24.9979 15.0833 24.9996 15.0834C25.0602 15.0842 25.1191 15.07 25.1714 15.0426C25.187 15.0815 25.1963 15.1234 25.1963 15.167V15.7012C25.1963 15.8882 25.0441 16.0404 24.8571 16.0404H24.6603V15.1292ZM15.3396 16.0404H15.1429C14.9559 16.0404 14.8037 15.8882 14.8037 15.7012V15.167C14.8037 15.1234 14.813 15.0815 14.8286 15.0426C14.8809 15.0701 14.9397 15.0842 15.0003 15.0834C15.003 15.0838 15.1529 15.083 15.3396 15.1294V16.0404ZM16.0425 16.4345V15.5111C16.149 15.543 16.2655 15.5387 16.373 15.4938C16.5575 15.4168 16.6766 15.2381 16.6766 15.0384V11.794C16.6766 11.3991 16.9979 11.0778 17.3928 11.0778H18.3629C18.5358 11.0778 18.7046 11.138 18.8385 11.2475L18.9336 11.3253C19.2337 11.5706 19.6124 11.7057 20 11.7057C20.3876 11.7057 20.7663 11.5706 21.0663 11.3253L21.1615 11.2475C21.2953 11.138 21.4642 11.0778 21.6371 11.0778H22.6072C23.0021 11.0778 23.3233 11.3991 23.3233 11.794V15.0384C23.3233 15.2381 23.4425 15.4169 23.6269 15.4939C23.6885 15.5195 23.753 15.532 23.817 15.532C23.8646 15.532 23.9119 15.525 23.9575 15.5114V16.4345C23.9575 16.9476 23.6027 17.9441 22.9452 18.7802C22.7275 19.0572 22.4475 19.3548 22.1028 19.6148C22.0919 19.6221 22.0815 19.6301 22.0715 19.6385C21.5375 20.0333 20.851 20.3357 20 20.3357C19.149 20.3357 18.4624 20.0333 17.9284 19.6385C17.9185 19.6301 17.9081 19.6221 17.8972 19.6149C17.5525 19.3548 17.2726 19.0572 17.0547 18.7802C16.3973 17.9441 16.0425 16.9476 16.0425 16.4345ZM22.3025 22.1127L20 23.8336L17.6975 22.1127C17.9258 21.8225 18.0537 21.4499 18.0537 21.1175V20.551C18.5952 20.8422 19.2413 21.0387 20 21.0387C20.7587 21.0387 21.4048 20.8422 21.9462 20.551V21.1175C21.9462 21.4499 22.0742 21.8225 22.3025 22.1127ZM17.1109 21.7204C16.9233 21.6489 16.7152 21.6372 16.5183 21.6905C16.5097 21.6926 16.5013 21.6949 16.4931 21.6973L15.2789 22.0637C15.4842 21.0539 16.3042 20.2502 17.3508 20.0945V21.1175C17.3508 21.338 17.2524 21.566 17.1109 21.7204ZM18.0648 24.5417C18.0641 24.54 18.0635 24.5384 18.0629 24.5368C18.0451 24.4918 18.0275 24.4473 18.0101 24.4034C18.0069 24.3954 18.0038 24.3875 18.0006 24.3796C17.9836 24.3366 17.9666 24.294 17.95 24.252C17.9488 24.2491 17.9476 24.2462 17.9464 24.2432C17.8944 24.1122 17.8442 23.9867 17.7959 23.8663C17.7924 23.8576 17.7888 23.8488 17.7853 23.8401C17.7715 23.8056 17.7578 23.7716 17.7443 23.738C17.7393 23.7257 17.7344 23.7135 17.7295 23.7013C17.7163 23.6688 17.7033 23.6365 17.6905 23.6048C17.6866 23.5954 17.6829 23.5862 17.6791 23.5767C17.6558 23.5193 17.633 23.4633 17.6108 23.4087C17.6048 23.3939 17.5986 23.3788 17.5927 23.3643C17.584 23.343 17.5755 23.3223 17.5669 23.3014C17.5578 23.2789 17.5486 23.2566 17.5396 23.2347C17.5362 23.2265 17.5327 23.2178 17.5293 23.2096C17.5266 23.2031 17.5241 23.197 17.5214 23.1905C17.4808 23.0919 17.4423 22.9989 17.4056 22.9115C17.4054 22.9108 17.405 22.9101 17.4048 22.9094C17.3853 22.8628 17.3662 22.8174 17.3478 22.7741C17.3383 22.7516 17.329 22.7295 17.3198 22.7079L19.3 24.1879L18.4726 24.5394C18.4711 24.54 18.4696 24.5406 18.4682 24.5413L18.1227 24.6881C18.1031 24.6385 18.0839 24.59 18.0648 24.5417ZM18.9034 26.6936C18.834 26.5135 18.764 26.3323 18.694 26.1513C18.5844 25.8682 18.4797 25.5991 18.3795 25.3427L18.5107 25.2869L19.0466 25.9099L18.9034 26.6936ZM20.0068 29.5501C19.9967 29.5292 19.9847 29.5094 19.9708 29.4911C19.812 29.0713 19.6105 28.5402 19.3874 27.9558L19.7155 26.1593H20.2845L20.6126 27.9558C20.3788 28.568 20.1689 29.1216 20.0068 29.5501ZM20.4163 25.4564H19.5837L19.1897 24.9985L20 24.6543L20.8103 24.9985L20.4163 25.4564ZM21.306 26.1513C21.2359 26.3323 21.166 26.5135 21.0966 26.6936L20.9534 25.9098L21.4893 25.2869L21.6205 25.3426C21.5203 25.599 21.4156 25.8682 21.306 26.1513ZM22.6522 22.7741C22.6348 22.8151 22.6167 22.8582 22.5983 22.9022C22.5959 22.9079 22.5934 22.9137 22.5911 22.9194C22.5728 22.963 22.5543 23.0075 22.535 23.0539C22.5338 23.057 22.5325 23.0602 22.5312 23.0633C22.5146 23.1033 22.4976 23.1445 22.4803 23.1866C22.4771 23.1944 22.474 23.2017 22.4708 23.2096C22.4669 23.219 22.4628 23.229 22.4589 23.2385C22.4512 23.2573 22.4434 23.2764 22.4355 23.2955C22.4259 23.3191 22.4163 23.3426 22.4064 23.3668C22.4032 23.3744 22.4 23.3825 22.3968 23.3902C22.3723 23.4501 22.3472 23.5119 22.3215 23.5754C22.3175 23.5853 22.3135 23.5951 22.3095 23.6052C22.2968 23.6365 22.2838 23.6685 22.2708 23.7007C22.2658 23.7133 22.2607 23.7259 22.2556 23.7387C22.2422 23.7719 22.2286 23.8055 22.2149 23.8397C22.2111 23.8492 22.2072 23.8589 22.2033 23.8685C22.1557 23.9872 22.1062 24.111 22.0549 24.24C22.0532 24.2442 22.0515 24.2484 22.0498 24.2527C22.0332 24.2944 22.0165 24.3368 21.9995 24.3795C21.9963 24.3875 21.9932 24.3954 21.99 24.4034C21.9724 24.4476 21.9548 24.4922 21.9369 24.5375C21.9365 24.5384 21.9362 24.5392 21.9359 24.54C21.9166 24.5889 21.8972 24.638 21.8774 24.6882L21.5316 24.5413C21.5304 24.5407 21.5291 24.5402 21.528 24.5397L20.7001 24.188L22.6803 22.708C22.671 22.7295 22.6616 22.7516 22.6522 22.7741ZM23.5069 21.6973L23.5067 21.6973C23.5064 21.6972 23.5061 21.6972 23.5058 21.697C23.3019 21.6358 23.0844 21.646 22.8891 21.7204C22.7476 21.566 22.6492 21.338 22.6492 21.1175V20.094C23.7024 20.2492 24.5199 21.0454 24.7226 22.0641L23.5069 21.6973ZM26.2344 26.6738C26.2344 27.289 25.7339 27.7895 25.1188 27.7895C24.5036 27.7895 24.0032 27.289 24.0032 26.6738C24.0032 26.0586 24.5036 25.5582 25.1188 25.5582C25.7339 25.5582 26.2344 26.0586 26.2344 26.6738Z" fill="#141414"/>
</svg>
