<svg width="40" height="40" viewBox="0 0 40 40" fill="none" xmlns="http://www.w3.org/2000/svg">
<circle cx="20" cy="20" r="20" fill="#fcda9b"/>
<g clip-path="url(#clip0_1_60)">
<mask id="mask0_1_60" style="mask-type:luminance" maskUnits="userSpaceOnUse" x="8" y="8" width="24" height="24">
<path d="M8 8H32V32H8V8Z" fill="white"/>
</mask>
<g mask="url(#mask0_1_60)">
<path d="M24.1484 12.5H25.6025C26.3792 12.5 27.0087 13.1295 27.0087 13.9063V31.6484H12.9688V13.9063C12.9688 13.1295 13.5983 12.5 14.375 12.5H15.8516" stroke="#141414" stroke-miterlimit="10" stroke-linecap="round" stroke-linejoin="round"/>
<path d="M20 16.6484C17.7125 16.6484 15.8516 14.7875 15.8516 12.5C15.8516 10.2125 17.7125 8.35156 20 8.35156C22.2875 8.35156 24.1484 10.2125 24.1484 12.5C24.1484 14.7875 22.2875 16.6484 20 16.6484Z" stroke="#141414" stroke-miterlimit="10" stroke-linecap="round" stroke-linejoin="round"/>
<path d="M22.4609 11.7969H20.8438C20.7661 11.7969 20.7031 11.7339 20.7031 11.6562V10.0391C20.7031 9.88377 20.5772 9.75781 20.4219 9.75781H19.5781C19.4228 9.75781 19.2969 9.88377 19.2969 10.0391V11.6562C19.2969 11.7339 19.2339 11.7969 19.1562 11.7969H17.5391C17.3838 11.7969 17.2578 11.9228 17.2578 12.0781V12.9219C17.2578 13.0772 17.3838 13.2031 17.5391 13.2031H19.1562C19.2339 13.2031 19.2969 13.2661 19.2969 13.3438V14.9609C19.2969 15.1162 19.4228 15.2422 19.5781 15.2422H20.4219C20.5772 15.2422 20.7031 15.1162 20.7031 14.9609V13.3438C20.7031 13.2661 20.7661 13.2031 20.8438 13.2031H22.4609C22.6162 13.2031 22.7422 13.0772 22.7422 12.9219V12.0781C22.7422 11.9228 22.6162 11.7969 22.4609 11.7969Z" stroke="#141414" stroke-miterlimit="10" stroke-linecap="round" stroke-linejoin="round"/>
<path d="M23.4934 24.7543V31.6484" stroke="#141414" stroke-miterlimit="10" stroke-linecap="round" stroke-linejoin="round"/>
<path d="M16.5067 27.5953V24.7543" stroke="#141414" stroke-miterlimit="10" stroke-linecap="round" stroke-linejoin="round"/>
<path d="M16.5067 31.6484V29.236" stroke="#141414" stroke-miterlimit="10" stroke-linecap="round" stroke-linejoin="round"/>
<path d="M23.9153 23.3481H16.0848C15.9295 23.3481 15.8036 23.4741 15.8036 23.6294V24.4731C15.8036 24.6285 15.9295 24.7544 16.0848 24.7544H23.9153C24.0706 24.7544 24.1965 24.6285 24.1965 24.4731V23.6294C24.1965 23.4741 24.0706 23.3481 23.9153 23.3481Z" stroke="#141414" stroke-miterlimit="10" stroke-linecap="round" stroke-linejoin="round"/>
<path d="M20 24.7543V31.6484" stroke="#141414" stroke-miterlimit="10" stroke-linecap="round" stroke-linejoin="round"/>
<path d="M21.4062 27.8416V28.5612" stroke="#141414" stroke-miterlimit="10" stroke-linecap="round" stroke-linejoin="round"/>
<path d="M18.5938 27.8416V28.5612" stroke="#141414" stroke-miterlimit="10" stroke-linecap="round" stroke-linejoin="round"/>
<path d="M18.5703 21.2389H15.4548C15.247 21.2389 15.0789 21.07 15.0798 20.8622L15.0877 19.1311C15.0886 18.9246 15.2562 18.7578 15.4627 18.7578H18.5703C18.7774 18.7578 18.9453 18.9257 18.9453 19.1328V20.8639C18.9453 21.071 18.7774 21.2389 18.5703 21.2389Z" stroke="#141414" stroke-miterlimit="10" stroke-linecap="round" stroke-linejoin="round"/>
<path d="M21.4297 18.7578H24.5339C24.7417 18.7578 24.9099 18.9267 24.9089 19.1345L24.9011 20.8656C24.9001 21.072 24.7325 21.2389 24.5261 21.2389H21.4297C21.2226 21.2389 21.0547 21.071 21.0547 20.8639V19.1328C21.0547 18.9257 21.2226 18.7578 21.4297 18.7578Z" stroke="#141414" stroke-miterlimit="10" stroke-linecap="round" stroke-linejoin="round"/>
<path d="M28.6497 15.788H30.2423C31.0189 15.788 31.6485 16.4176 31.6485 17.1943V31.2734C31.6485 31.4806 31.4806 31.6484 31.2735 31.6484H27.009" stroke="#141414" stroke-miterlimit="10" stroke-linecap="round" stroke-linejoin="round"/>
<path d="M27.009 17.8973H29.1642C29.3719 17.8973 29.5401 18.0663 29.5392 18.274L29.5313 20.0051C29.5303 20.2116 29.3627 20.3784 29.1563 20.3784H27.009" stroke="#141414" stroke-miterlimit="10" stroke-linecap="round" stroke-linejoin="round"/>
<path d="M27.009 22.4878H29.1642C29.3719 22.4878 29.5401 22.6567 29.5392 22.8645L29.5313 24.5956C29.5303 24.802 29.3627 24.9689 29.1563 24.9689H27.009" stroke="#141414" stroke-miterlimit="10" stroke-linecap="round" stroke-linejoin="round"/>
<path d="M27.009 27.058H29.1642C29.3719 27.058 29.5401 27.2269 29.5392 27.4347L29.5313 29.1657C29.5303 29.3722 29.3627 29.5391 29.1563 29.5391H27.009" stroke="#141414" stroke-miterlimit="10" stroke-linecap="round" stroke-linejoin="round"/>
<path d="M12.9911 15.788H9.75781C8.98119 15.788 8.35156 16.4176 8.35156 17.1943V31.2734C8.35156 31.4806 8.51947 31.6484 8.72656 31.6484H12.9911" stroke="#141414" stroke-miterlimit="10" stroke-linecap="round" stroke-linejoin="round"/>
<path d="M12.9688 20.3783H10.8439C10.6372 20.3783 10.4698 20.2114 10.4689 20.0052L10.4609 18.2741C10.46 18.0664 10.6283 17.8972 10.8359 17.8972H12.9688" stroke="#141414" stroke-miterlimit="10" stroke-linecap="round" stroke-linejoin="round"/>
<path d="M12.9688 24.9688H10.8439C10.6372 24.9688 10.4698 24.8019 10.4689 24.5956L10.4609 22.8645C10.46 22.6569 10.6283 22.4877 10.8359 22.4877H12.9688" stroke="#141414" stroke-miterlimit="10" stroke-linecap="round" stroke-linejoin="round"/>
<path d="M12.9688 29.5391H10.8439C10.6372 29.5391 10.4698 29.3722 10.4689 29.1659L10.4609 27.4348C10.46 27.2267 10.6283 27.058 10.8359 27.058H12.9688" stroke="#141414" stroke-miterlimit="10" stroke-linecap="round" stroke-linejoin="round"/>
</g>
</g>
<defs>
<clipPath id="clip0_1_60">
<rect width="24" height="24" fill="white" transform="translate(8 8)"/>
</clipPath>
</defs>
</svg>
