<svg width="40" height="40" viewBox="0 0 40 40" fill="none" xmlns="http://www.w3.org/2000/svg">
<path d="M40 20C40 31.0457 31.0457 40 20 40C8.9543 40 0 31.0457 0 20C0 8.9543 8.9543 0 20 0C31.0457 0 40 8.9543 40 20Z" fill="#fcda9b"/>
<path d="M26.6529 31.3866L20 27.2235L13.3471 31.3866C13.1054 31.5397 12.7936 31.5281 12.5609 31.3591C12.3288 31.1909 12.2224 30.8984 12.2924 30.6203L14.1957 23.0061L8.25143 17.9661C8.03168 17.7821 7.94585 17.4827 8.03444 17.2101C8.12304 16.9369 8.36885 16.7453 8.65451 16.7254L16.413 16.1836L19.3477 8.90446C19.5633 8.37299 20.4367 8.37299 20.6523 8.90446L23.587 16.1836L31.3455 16.7254C31.6311 16.7453 31.8769 16.9369 31.9655 17.2101C32.0541 17.4827 31.9683 17.7821 31.7486 17.9661L25.8042 23.0061L27.7076 30.6204C27.7776 30.8985 27.6712 31.191 27.4391 31.3592C27.2015 31.5317 26.8907 31.5356 26.6529 31.3866Z" fill="#141414"/>
</svg>
