<svg width="40" height="40" viewBox="0 0 40 40" fill="none" xmlns="http://www.w3.org/2000/svg">
<circle cx="20" cy="20" r="20" fill="#fcda9b"/>
<g clip-path="url(#clip0_1_422)">
<path d="M19.3029 16.3428L14.7076 14.7341C14.7076 16.2029 14.6952 16.1925 14.7413 16.3311C14.805 16.53 14.9558 16.6952 15.1581 16.7727C20.1652 18.6987 19.8131 18.5849 20.0001 18.5849C20.1854 18.5849 19.829 18.7008 24.8415 16.7727C25.1101 16.6695 25.2926 16.4118 25.2926 16.1163V14.811L20.6673 16.3531C20.2235 16.501 19.7436 16.4973 19.3029 16.3428Z" fill="#141414"/>
<path d="M12.533 12.4541C12.7022 12.5663 12.1361 12.3442 19.7675 15.015C19.914 15.0669 20.0733 15.0681 20.2223 15.0188C22.8809 14.1325 24.5796 13.5662 26.7104 12.8559V16.8225C26.7104 17.0166 26.7891 17.1929 26.9167 17.3199C27.3573 17.7607 28.1169 17.4469 28.1169 16.8225C28.1169 12.0271 28.1157 11.9187 28.1155 11.9193C28.1367 11.6194 27.9477 11.317 27.6359 11.213C20.1277 8.71051 20.1667 8.70605 20 8.70605C19.8271 8.70605 19.8773 8.70751 12.7074 11.2163C12.1725 11.4035 12.0664 12.1204 12.533 12.4541Z" fill="#141414"/>
<path d="M12.2305 23.5249H13.6483V24.9423H12.2305V23.5249Z" fill="#141414"/>
<path d="M31.2967 11.8802H29.5235V16.8225C29.5235 17.9862 28.5769 18.9324 27.4136 18.9324C26.6648 18.9324 26.0061 18.5404 25.6315 17.951C25.4377 18.0609 25.7595 17.9269 20.7577 19.8509C20.2785 20.0353 19.7391 20.0417 19.2423 19.8509L14.6531 18.0856C13.8382 17.7719 13.3009 16.9902 13.3009 16.1164V14.2424L12.2427 13.8715C11.3974 13.5761 10.8296 12.7758 10.8296 11.8802H8.70329C8.31507 11.8802 8 12.1953 8 12.5835V27.7666C8 28.1548 8.31507 28.4699 8.70329 28.4699H15.0604V29.8873H12.9394C12.5512 29.8873 12.2361 30.2024 12.2361 30.5906C12.2361 30.9793 12.5512 31.2939 12.9394 31.2939H27.0606C27.4488 31.2939 27.7639 30.9793 27.7639 30.5906C27.7639 30.2024 27.4488 29.8873 27.0606 29.8873H24.9395V28.4699H31.2967C31.6849 28.4699 32 28.1548 32 27.7666V12.5835C32 12.1953 31.6849 11.8802 31.2967 11.8802ZM15.0549 25.6455C15.0549 26.0342 14.7399 26.3488 14.3516 26.3488H11.5272C11.139 26.3488 10.8239 26.0342 10.8239 25.6455V22.8216C10.8239 22.4329 11.139 22.1183 11.5272 22.1183H14.3516C14.7399 22.1183 15.0549 22.4329 15.0549 22.8216V25.6455ZM28.4728 26.3488H17.1756C16.7874 26.3488 16.4723 26.0342 16.4723 25.6455C16.4723 25.2573 16.7874 24.9422 17.1756 24.9422H28.4728C28.861 24.9422 29.1761 25.2573 29.1761 25.6455C29.1761 26.0342 28.861 26.3488 28.4728 26.3488ZM28.4728 23.5249H17.1756C16.7874 23.5249 16.4723 23.2098 16.4723 22.8216C16.4723 22.4329 16.7874 22.1183 17.1756 22.1183H28.4728C28.861 22.1183 29.1761 22.4329 29.1761 22.8216C29.1761 23.2098 28.861 23.5249 28.4728 23.5249Z" fill="#141414"/>
</g>
<defs>
<clipPath id="clip0_1_422">
<rect width="24" height="24" fill="white" transform="translate(8 8)"/>
</clipPath>
</defs>
</svg>
