<svg width="40" height="40" viewBox="0 0 40 40" fill="none" xmlns="http://www.w3.org/2000/svg">
<path d="M40 20C40 31.0457 31.0457 40 20 40C8.9543 40 0 31.0457 0 20C0 8.9543 8.9543 0 20 0C31.0457 0 40 8.9543 40 20Z" fill="#fcda9b"/>
<path d="M21.7529 15.0879H15.8329C15.6383 15.0879 15.4806 15.2457 15.4806 15.4402C15.4806 15.6347 15.6383 15.7925 15.8329 15.7925H21.7529C21.9475 15.7925 22.1052 15.6347 22.1052 15.4402C22.1052 15.2456 21.9475 15.0879 21.7529 15.0879Z" fill="#141414"/>
<path d="M15.8329 17.0564H19.1602C19.3548 17.0564 19.5125 16.8987 19.5125 16.7041C19.5125 16.5096 19.3548 16.3519 19.1602 16.3519H15.8329C15.6383 16.3519 15.4806 16.5096 15.4806 16.7041C15.4806 16.8987 15.6383 17.0564 15.8329 17.0564Z" fill="#141414"/>
<path d="M14.06 14.9441L12.7634 16.2736L12.2025 15.7282C12.0631 15.5925 11.84 15.5957 11.7044 15.7351C11.5688 15.8746 11.5719 16.0976 11.7114 16.2333L12.5245 17.024C12.6619 17.1577 12.8884 17.1545 13.0222 17.0173L14.5643 15.436C14.7002 15.2967 14.6974 15.0737 14.5581 14.9378C14.4187 14.802 14.1958 14.8049 14.06 14.9441Z" fill="#141414"/>
<path d="M21.7529 18.6754H15.8329C15.6383 18.6754 15.4806 18.8331 15.4806 19.0277C15.4806 19.2222 15.6383 19.3799 15.8329 19.3799H21.7529C21.9475 19.3799 22.1052 19.2222 22.1052 19.0277C22.1052 18.8331 21.9475 18.6754 21.7529 18.6754Z" fill="#141414"/>
<path d="M19.1602 19.9393H15.8329C15.6383 19.9393 15.4806 20.097 15.4806 20.2916C15.4806 20.4862 15.6383 20.6439 15.8329 20.6439H19.1602C19.3548 20.6439 19.5125 20.4861 19.5125 20.2916C19.5125 20.0971 19.3548 19.9393 19.1602 19.9393Z" fill="#141414"/>
<path d="M14.06 18.5316L12.7634 19.8612L12.2025 19.3157C12.063 19.1801 11.84 19.1833 11.7044 19.3227C11.5688 19.4622 11.5719 19.6852 11.7114 19.8208L12.5245 20.6114C12.6619 20.7452 12.8884 20.742 13.0222 20.6048L14.5643 19.0235C14.7002 18.8842 14.6974 18.6612 14.5581 18.5254C14.4188 18.3895 14.1958 18.3924 14.06 18.5316Z" fill="#141414"/>
<path d="M14.06 22.1191L12.7634 23.4486L12.2025 22.9032C12.0631 22.7675 11.84 22.7707 11.7044 22.9102C11.5688 23.0496 11.5719 23.2727 11.7114 23.4083L12.5245 24.1989C12.6619 24.3327 12.8884 24.3295 13.0222 24.1923L14.5643 22.611C14.7002 22.4717 14.6974 22.2487 14.5581 22.1128C14.4188 21.977 14.1958 21.9799 14.06 22.1191Z" fill="#141414"/>
<path d="M14.06 25.7067L12.7634 27.0362L12.2025 26.4907C12.0631 26.3551 11.84 26.3583 11.7044 26.4977C11.5688 26.6371 11.5719 26.8602 11.7114 26.9958L12.5245 27.7865C12.6619 27.9202 12.8884 27.9171 13.0222 27.7799L14.5643 26.1986C14.7002 26.0593 14.6974 25.8363 14.5581 25.7004C14.4188 25.5645 14.1958 25.5674 14.06 25.7067Z" fill="#141414"/>
<path d="M28.5974 20.2795C29.3425 19.1585 29.1748 17.616 29.1664 17.543C29.1475 17.3807 29.0194 17.2526 28.857 17.2337C28.7751 17.2242 26.837 17.0136 25.7271 18.1235C25.6669 18.1837 25.6116 18.2469 25.559 18.3116V15.8727C25.559 15.6782 25.4013 15.5205 25.2067 15.5205C25.0121 15.5205 24.8544 15.6782 24.8544 15.8727V19.2332C24.6194 18.8613 24.306 18.4882 23.889 18.1493V11.9883C23.889 11.7938 23.7313 11.636 23.5368 11.636H21.0806V10.6511H24.2943C24.6031 10.6511 24.8544 10.9024 24.8544 11.2112V14.4637C24.8544 14.6583 25.0121 14.816 25.2066 14.816C25.4012 14.816 25.5589 14.6583 25.5589 14.4637V11.2113C25.5589 10.514 24.9916 9.94667 24.2943 9.94667H21.0117C20.8708 9.59595 20.5279 9.34733 20.1274 9.34733H18.9615V8.82917C18.9616 8.37195 18.5896 8 18.1324 8H15.9158C15.4586 8 15.0866 8.37195 15.0866 8.82917V9.34728H13.9208C13.5202 9.34728 13.1773 9.59586 13.0364 9.94662H9.75383C9.05652 9.94662 8.48923 10.5139 8.48923 11.2112V30.726C8.48923 31.4233 9.05656 31.9906 9.75383 31.9906H23.5627C24.1574 32.0398 24.7204 31.8623 25.2066 31.4657C25.6387 31.8185 26.1315 31.9999 26.6574 31.9999C26.7597 31.9999 26.8633 31.993 26.9679 31.9792C28.147 31.8235 29.3309 30.8157 30.2162 29.2142C30.3103 29.0439 30.2487 28.8296 30.0784 28.7355C29.9082 28.6414 29.6938 28.7031 29.5997 28.8733C28.8351 30.2565 27.8168 31.1565 26.8757 31.2808C26.3478 31.3504 25.8719 31.1694 25.4602 30.7427C25.3237 30.6013 25.0898 30.6012 24.9533 30.7427C24.4295 31.2856 23.8095 31.4304 23.1103 31.173C22.3125 30.8794 21.4911 30.0691 20.8565 28.9498C20.155 27.7125 19.7145 26.1599 19.616 24.5781C19.551 23.5337 19.8436 22.6577 20.4857 21.9745C21.3437 21.0614 22.8383 20.5014 24.6406 20.4048C24.6735 20.5005 24.7042 20.5977 24.7306 20.6978C24.8469 21.1384 24.8728 21.531 24.8731 21.7917C24.2197 21.7014 23.7933 21.3772 23.7895 21.3743C23.6369 21.2537 23.4154 21.2795 23.2948 21.4322C23.1741 21.5848 23.2 21.8063 23.3527 21.9269C23.3833 21.9511 24.1147 22.5193 25.2064 22.5194C25.2062 22.5194 25.2066 22.5194 25.2064 22.5194C25.207 22.5194 25.2083 22.5193 25.2089 22.5193C26.2996 22.5185 27.0302 21.9511 27.0607 21.9269C27.2356 21.7887 27.2357 21.5164 27.0623 21.377C27.4198 21.2649 27.7783 21.095 28.0903 20.8405C30.4615 21.676 30.8754 23.3252 30.7974 24.578C30.7307 25.6492 30.5172 26.6785 30.1626 27.6372C30.0987 27.8103 30.1834 28.0087 30.3525 28.0823C30.5356 28.162 30.7542 28.0686 30.8234 27.8815C31.2018 26.8583 31.4296 25.7615 31.5005 24.6217C31.6259 22.6077 30.5987 21.0818 28.5974 20.2795ZM13.6721 10.3005C13.6721 10.1634 13.7837 10.0518 13.9208 10.0518H15.4388C15.6334 10.0518 15.7911 9.89412 15.7911 9.69955V8.82917C15.7911 8.76041 15.8471 8.70448 15.9158 8.70448H18.1324C18.2012 8.70448 18.2571 8.76041 18.2571 8.82917V9.69955C18.2571 9.89408 18.4148 10.0518 18.6094 10.0518H20.1275C20.2646 10.0518 20.3762 10.1634 20.3762 10.3005V11.9547C20.3762 12.0918 20.2646 12.2034 20.1275 12.2034H13.9208C13.7836 12.2034 13.6721 12.0918 13.6721 11.9547V10.3005ZM19.9723 21.4921C19.748 21.7307 19.56 21.9883 19.406 22.2629H15.8329C15.6383 22.2629 15.4806 22.4206 15.4806 22.6152C15.4806 22.8097 15.6383 22.9675 15.8329 22.9675H19.1004C19.0428 23.148 18.9971 23.3344 18.9648 23.5269H15.8329C15.6383 23.5269 15.4806 23.6847 15.4806 23.8792C15.4806 24.0737 15.6383 24.2315 15.8329 24.2315H18.904C18.9024 24.3596 18.9047 24.4895 18.9129 24.622C18.9388 25.0379 18.986 25.4482 19.053 25.8505H15.8329C15.6383 25.8505 15.4806 26.0082 15.4806 26.2027C15.4806 26.3973 15.6383 26.555 15.8329 26.555H19.193C19.2367 26.7438 19.2845 26.9304 19.3373 27.1145H15.8329C15.6383 27.1145 15.4806 27.2722 15.4806 27.4667C15.4806 27.6612 15.6383 27.819 15.8329 27.819H19.5665C19.7554 28.3386 19.9811 28.8342 20.2438 29.2975C20.3018 29.3998 20.3613 29.4995 20.4218 29.5969H10.8635V22.2242C10.8635 22.0296 10.7059 21.8719 10.5113 21.8719C10.3167 21.8719 10.159 22.0296 10.159 22.2242V29.949C10.159 30.1435 10.3167 30.3012 10.5113 30.3012H20.915C21.2237 30.6915 21.5539 31.0227 21.897 31.2862H9.75383C9.44497 31.2862 9.19372 31.0349 9.19372 30.7261V11.2113C9.19372 10.9024 9.44497 10.6512 9.75383 10.6512H12.9675V11.6361H10.5113C10.3167 11.6361 10.159 11.7938 10.159 11.9884V20.8152C10.159 21.0097 10.3167 21.1674 10.5113 21.1674C10.7059 21.1674 10.8635 21.0097 10.8635 20.8152V12.3406H13.0499C13.1984 12.6743 13.5326 12.9079 13.9208 12.9079H20.1274C20.5156 12.9079 20.8497 12.6743 20.9982 12.3406H23.1846V17.6804C23.0301 17.6303 22.8565 17.6924 22.7716 17.8385C22.6739 18.0067 22.731 18.2223 22.8992 18.32C22.9982 18.3776 23.0928 18.4385 23.1846 18.5016V19.8793C21.8315 20.153 20.7087 20.7084 19.9723 21.4921ZM23.8891 19.7652V19.1168C24.0564 19.3031 24.203 19.5043 24.3287 19.7203C24.1801 19.7322 24.0336 19.7472 23.8891 19.7652ZM25.5779 21.7865C25.5778 21.7245 25.5764 21.657 25.5732 21.5844C25.5856 21.5845 25.5972 21.5847 25.61 21.5847C25.816 21.5847 26.076 21.5731 26.3603 21.533C26.1774 21.6264 25.9079 21.7357 25.5779 21.7865ZM25.5218 20.8784C25.5129 20.3574 25.5793 19.2677 26.2253 18.6217C26.8713 17.9756 27.9626 17.9092 28.4819 17.9181C28.4909 18.4391 28.4244 19.5289 27.7784 20.1748C27.1324 20.8209 26.0432 20.8871 25.5218 20.8784Z" fill="#141414"/>
</svg>
