<svg width="40" height="40" viewBox="0 0 40 40" fill="none" xmlns="http://www.w3.org/2000/svg">
<circle cx="20" cy="20" r="20" fill="#fcda9b"/>
<path d="M10.8594 11.0938C10.8594 10.7054 10.5446 10.3906 10.1562 10.3906H8.70312C8.31481 10.3906 8 10.7054 8 11.0938V20.4688C8 20.8571 8.31481 21.1719 8.70312 21.1719H10.1562C10.5446 21.1719 10.8594 20.8571 10.8594 20.4688V17.4219H12.2656V14.1406H10.8594V11.0938Z" fill="#141414"/>
<path d="M31.2969 10.3906H29.8438C29.4554 10.3906 29.1406 10.7054 29.1406 11.0938V14.1406H27.7344V17.4219H29.1406V20.4688C29.1406 20.8571 29.4554 21.1719 29.8438 21.1719H31.2969C31.6852 21.1719 32 20.8571 32 20.4688V11.0938C32 10.7054 31.6852 10.3906 31.2969 10.3906Z" fill="#141414"/>
<path d="M24.7461 12.2656C23.8723 12.2656 23.1641 12.9739 23.1641 13.8477C23.1641 12.9739 22.4558 12.2656 21.582 12.2656C20.7083 12.2656 20 12.9739 20 13.8477C20 12.9739 19.2917 12.2656 18.418 12.2656C17.5442 12.2656 16.8359 12.9739 16.8359 13.8477C16.8359 12.9739 16.1277 12.2656 15.2539 12.2656C14.3802 12.2656 13.6719 12.9739 13.6719 13.8477V16.8016C14.0983 16.5985 14.5751 16.4844 15.0781 16.4844H19.7656C19.8449 16.4844 19.923 16.4892 20 16.4977C21.0532 16.6147 21.875 17.5099 21.875 18.5938V18.8281C21.875 18.979 21.866 19.1277 21.8487 19.274C22.5954 19.1473 23.1641 18.4977 23.1641 17.7148C23.1641 18.5886 23.8723 19.2969 24.7461 19.2969C25.6198 19.2969 26.3281 18.5886 26.3281 17.7148V13.8477C26.3281 12.9739 25.6198 12.2656 24.7461 12.2656Z" fill="#141414"/>
<path d="M23.1641 20.2483C22.7049 20.5361 22.1627 20.7031 21.582 20.7031C21.574 20.7031 21.566 20.7027 21.5579 20.7027C21.0305 21.8105 19.9002 22.5781 18.5938 22.5781H17.6562V22.7926C17.6562 23.1712 17.3653 23.497 16.9871 23.5148C16.5833 23.5339 16.25 23.2121 16.25 22.8125V21.875C16.25 21.4867 16.5648 21.1719 16.9531 21.1719H18.125C19.4194 21.1719 20.4688 20.1225 20.4688 18.8281V18.5938C20.4688 18.2054 20.1539 17.8906 19.7656 17.8906H15.0781C14.0426 17.8906 13.2031 18.7301 13.2031 19.7656V22.8125C13.2031 24.6722 14.6547 26.1993 16.4844 26.3204V28.9062C16.4844 29.2946 16.7992 29.6094 17.1875 29.6094H22.8125C23.2008 29.6094 23.5156 29.2946 23.5156 28.9062V26.2575C25.1183 25.9308 26.3281 24.5103 26.3281 22.8125V20.2483C25.8689 20.5361 25.3268 20.7031 24.7461 20.7031C24.1654 20.7031 23.6233 20.5361 23.1641 20.2483Z" fill="#141414"/>
</svg>
