<svg width="40" height="40" viewBox="0 0 40 40" fill="none" xmlns="http://www.w3.org/2000/svg">
<circle cx="20" cy="20" r="20" fill="#fcda9b"/>
<g clip-path="url(#clip0_1_37)">
<path d="M19.0745 24.3099C19.2578 24.1262 19.2578 23.829 19.0745 23.6454C18.891 23.4623 18.5938 23.4623 18.4101 23.6454C18.2271 23.829 18.2271 24.1262 18.4101 24.3099C18.5938 24.493 18.891 24.493 19.0745 24.3099Z" fill="#141414"/>
<path d="M16.8508 13.1649C16.8508 16.0128 19.1678 18.3299 22.0157 18.3299C24.8636 18.3299 27.1806 16.0128 27.1806 13.1649C27.1806 10.317 24.8636 8 22.0157 8C19.1678 8 16.8508 10.317 16.8508 13.1649ZM26.2416 13.1649C26.2416 15.495 24.3459 17.3908 22.0157 17.3908C19.6855 17.3908 17.7898 15.495 17.7898 13.1649C17.7898 10.8349 19.6855 8.93915 22.0157 8.93915C24.3459 8.93915 26.2416 10.8349 26.2416 13.1649Z" fill="#141414"/>
<path d="M13.4318 31.9081C13.6138 32.0915 13.9101 32.0935 14.0945 31.9119L16.3709 29.6693C16.7577 29.2825 16.8753 28.7099 16.7052 28.2122L17.1949 27.74C17.4585 27.4853 17.8056 27.345 18.1725 27.345H24.4145C25.5219 27.345 26.5686 26.9197 27.3621 26.1475C27.3947 26.1157 27.1142 26.4462 31.6204 21.0604C32.2888 20.2697 32.1888 19.0823 31.3974 18.4132C30.6108 17.7503 29.4326 17.8456 28.7624 18.6227L25.9918 21.4704C25.6419 21.0399 25.1084 20.7714 24.532 20.7714H19.2961C18.551 20.4597 17.7605 20.302 16.9448 20.302C14.6838 20.302 12.7095 21.3462 11.65 23.3042C11.2037 23.2196 10.7329 23.3546 10.3942 23.6933L8.16056 25.9336C7.9782 26.1165 7.97783 26.4124 8.15983 26.5959L13.4318 31.9081ZM16.9446 21.2409C17.6638 21.2409 18.3591 21.3857 19.0117 21.6712C19.0712 21.6972 19.1352 21.7106 19.1999 21.7106H24.532C25.0411 21.7106 25.4711 22.1258 25.4711 22.6496C25.4711 23.1675 25.0499 23.5887 24.532 23.5887H20.701C20.4418 23.5887 20.2316 23.799 20.2316 24.0582C20.2316 24.3176 20.4418 24.5277 20.701 24.5277H24.532C25.5676 24.5277 26.4101 23.6852 26.4101 22.6496C26.4101 22.567 26.4042 22.4852 26.3936 22.4041C29.0738 19.649 29.4517 19.2619 29.4679 19.2426C29.8025 18.8476 30.3966 18.7976 30.7917 19.1307C31.1873 19.4652 31.2374 20.0589 30.9018 20.4561L26.6904 25.4907C26.0754 26.0811 25.268 26.406 24.4145 26.406H18.1725C17.5609 26.406 16.9819 26.6399 16.5427 27.0643L16.1436 27.4493L12.4652 23.7711C13.3249 22.1583 14.9381 21.2409 16.9446 21.2409ZM11.0587 24.3569C11.2136 24.202 11.4514 24.1742 11.6401 24.2908C11.7214 24.3404 11.488 24.1279 15.707 28.341C15.8947 28.5287 15.8846 28.8277 15.7095 29.0027L13.7689 30.9146L9.1553 26.2658L11.0587 24.3569Z" fill="#141414"/>
<path d="M21.4523 10.3478V10.898C20.9058 11.0918 20.5132 11.6137 20.5132 12.226C20.5132 13.0026 21.145 13.6346 21.9218 13.6346C22.1807 13.6346 22.3913 13.8452 22.3913 14.1041C22.3913 14.3629 22.1807 14.5736 21.9218 14.5736C21.7213 14.5736 21.5046 14.4475 21.3122 14.2184C21.1452 14.0199 20.8491 13.9944 20.6506 14.1611C20.4521 14.3281 20.4264 14.6242 20.5933 14.8227C20.8443 15.1212 21.1395 15.3293 21.4523 15.4342V15.9822C21.4523 16.2416 21.6626 16.4517 21.9218 16.4517C22.181 16.4517 22.3913 16.2416 22.3913 15.9822V15.432C22.9378 15.2381 23.3304 14.7161 23.3304 14.1041C23.3304 13.3273 22.6986 12.6954 21.9218 12.6954C21.6629 12.6954 21.4523 12.4848 21.4523 12.226C21.4523 11.9671 21.6629 11.7563 21.9218 11.7563C22.0882 11.7563 22.2638 11.8412 22.4296 12.0018C22.616 12.1821 22.9132 12.1772 23.0936 11.9909C23.2739 11.8045 23.269 11.5073 23.0828 11.327C22.8444 11.0964 22.6059 10.9659 22.3913 10.8947V10.3478C22.3913 10.0884 22.181 9.87817 21.9218 9.87817C21.6626 9.87817 21.4523 10.0884 21.4523 10.3478Z" fill="#141414"/>
</g>
<defs>
<clipPath id="clip0_1_37">
<rect width="24" height="24.047" fill="white" transform="translate(8 8)"/>
</clipPath>
</defs>
</svg>
