<svg width="40" height="40" viewBox="0 0 40 40" fill="none" xmlns="http://www.w3.org/2000/svg">
<circle cx="20" cy="20" r="20" fill="#fcda9b"/>
<g clip-path="url(#clip0_1_26)">
<path d="M16.4094 30.2516C16.8422 30.6317 17.289 31.0237 17.7486 31.4302C17.7517 31.433 17.7549 31.4358 17.7581 31.4386L19.287 32.7592C19.4919 32.9362 19.7461 33.0247 20.0004 33.0247C20.2546 33.0247 20.5089 32.9362 20.7138 32.7592L22.2424 31.4386C22.2456 31.4358 22.2487 31.4331 22.2518 31.4303C25.2785 28.7536 27.5477 26.7045 29.1894 24.7059C31.1069 22.3717 32.0001 20.2612 32.0001 18.0641C32.0001 14.089 28.8863 10.9752 24.9113 10.9752C23.1248 10.9752 21.3595 11.6479 20.0004 12.8141C18.6409 11.6479 16.8756 10.9752 15.089 10.9752C11.1138 10.9751 8 14.089 8 18.064C8 22.8691 11.3455 25.806 16.4094 30.2516ZM15.6354 19.8177H18.5451V16.9079H21.4549V19.8177H24.3646V22.7275H21.4549V25.6371H18.5451V22.7275H15.6354V19.8177Z" fill="#141414"/>
</g>
<defs>
<clipPath id="clip0_1_26">
<rect width="24" height="24" fill="white" transform="translate(8 10)"/>
</clipPath>
</defs>
</svg>
