<svg width="40" height="40" viewBox="0 0 40 40" fill="none" xmlns="http://www.w3.org/2000/svg">
<circle cx="20" cy="20" r="20" fill="#fcda9b"/>
<mask id="mask0_1_747" style="mask-type:luminance" maskUnits="userSpaceOnUse" x="8" y="8" width="24" height="24">
<path d="M8 8H32V32H8V8Z" fill="white"/>
</mask>
<g mask="url(#mask0_1_747)">
<path d="M22.3203 29.2812H9.6875V27.0312H21.1719" stroke="#141414" stroke-miterlimit="10" stroke-linecap="round" stroke-linejoin="round"/>
</g>
<path d="M20.75 15.0781H18.446V12.624H16.3835V15.0781H14V17.1406H16.3835V21.249H18.446V17.1406H20.75V15.0781Z" stroke="#141414" stroke-miterlimit="10" stroke-linecap="round" stroke-linejoin="round"/>
<mask id="mask1_1_747" style="mask-type:luminance" maskUnits="userSpaceOnUse" x="8" y="8" width="24" height="24">
<path d="M8 8H32V32H8V8Z" fill="white"/>
</mask>
<g mask="url(#mask1_1_747)">
<path d="M23.75 19.9465V14.8437C23.75 11.3229 20.8958 8.46872 17.375 8.46872C13.8542 8.46872 11 11.3229 11 14.8437V18.375" stroke="#141414" stroke-miterlimit="10" stroke-linecap="round" stroke-linejoin="round"/>
<path d="M11 22.5937V27.0312H21.2075" stroke="#141414" stroke-miterlimit="10" stroke-linecap="round" stroke-linejoin="round"/>
<path d="M26.2812 31.5312H8.46875V29.2812H22.3906" stroke="#141414" stroke-miterlimit="10" stroke-linecap="round" stroke-linejoin="round"/>
<path d="M26.2811 19.1562L31.5312 20.7954V25.1796C31.5312 28.282 29.3282 30.9473 26.2812 31.5312C23.2343 30.9473 21.0312 28.282 21.0312 25.1796V20.7954L26.2815 19.1562" stroke="#141414" stroke-miterlimit="10" stroke-linecap="round" stroke-linejoin="round"/>
<path d="M22.9062 22.1743V25.1796C22.9062 27.2574 24.3053 29.0651 26.2812 29.6077C28.2572 29.0651 29.6562 27.2574 29.6562 25.1796V22.1743L26.2812 21.1206L22.9062 22.1743Z" stroke="#141414" stroke-miterlimit="10" stroke-linecap="round" stroke-linejoin="round"/>
<path d="M24.7812 25.129L25.8612 26.209L27.7812 24.289" stroke="#141414" stroke-miterlimit="10" stroke-linecap="round" stroke-linejoin="round"/>
<path d="M13.7188 24.0781H21.0312" stroke="#141414" stroke-miterlimit="10" stroke-linecap="round" stroke-linejoin="round"/>
</g>
</svg>
