<svg width="40" height="40" viewBox="0 0 40 40" fill="none" xmlns="http://www.w3.org/2000/svg">
<circle cx="20" cy="20" r="20" fill="#fcda9b"/>
<path d="M9.28064 29.1017V14.4979C9.28064 14.0382 9.61626 13.6659 10.0306 13.6659H17.1411" stroke="#141414" stroke-miterlimit="10" stroke-linecap="round" stroke-linejoin="round"/>
<path d="M30.7194 29.1018V20.7279" stroke="#141414" stroke-miterlimit="10" stroke-linecap="round" stroke-linejoin="round"/>
<path d="M27.2079 13.6659H29.9694C30.3837 13.6659 30.7194 14.0382 30.7194 14.4979V18.9079" stroke="#141414" stroke-miterlimit="10" stroke-linecap="round" stroke-linejoin="round"/>
<path d="M26.0295 13.6659H18.3354" stroke="#141414" stroke-miterlimit="10" stroke-linecap="round" stroke-linejoin="round"/>
<path d="M14.6108 27.5095H11.1556C10.8969 27.5095 10.6869 27.2771 10.6869 26.9895V15.7458C10.6869 15.4588 10.8969 15.2258 11.1556 15.2258H17.5442" stroke="#141414" stroke-miterlimit="10" stroke-linecap="round" stroke-linejoin="round"/>
<path d="M26.7945 15.2258H28.8444C29.1031 15.2258 29.3131 15.4588 29.3131 15.7458V26.9895C29.3131 27.2771 29.1031 27.5095 28.8444 27.5095H16.2514" stroke="#141414" stroke-miterlimit="10" stroke-linecap="round" stroke-linejoin="round"/>
<path d="M25.4843 15.2258H18.8904" stroke="#141414" stroke-miterlimit="10" stroke-linecap="round" stroke-linejoin="round"/>
<path d="M30.4766 31.7017H9.52344C8.87623 31.7017 8.35156 31.1197 8.35156 30.4018V29.7258C8.35156 29.3812 8.60342 29.1018 8.91406 29.1018H31.0859C31.3966 29.1018 31.6484 29.3812 31.6484 29.7258V30.4018C31.6484 31.1197 31.1238 31.7017 30.4766 31.7017Z" stroke="#141414" stroke-miterlimit="10" stroke-linecap="round" stroke-linejoin="round"/>
<path d="M17.6816 12.0181V8.65329C17.6816 8.1515 18.0481 7.74487 18.5005 7.74487H19.2186" stroke="#141414" stroke-miterlimit="10" stroke-linecap="round" stroke-linejoin="round"/>
<path d="M25.1384 7.74487H25.8566C26.3084 7.74487 26.675 8.1515 26.675 8.65329V12.0181" stroke="#141414" stroke-miterlimit="10" stroke-linecap="round" stroke-linejoin="round"/>
<path d="M22.1783 21.1339V22.8015C22.1783 23.5196 21.6537 24.1015 21.0064 24.1015H19.9766C19.3292 24.1015 18.8047 23.5196 18.8047 22.8015V22.0715C18.8047 21.3534 18.2802 20.7715 17.6328 20.7715H16.603C15.9556 20.7715 15.4311 21.3534 15.4311 22.0715V22.9575" stroke="#141414" stroke-miterlimit="10" stroke-linecap="round" stroke-linejoin="round"/>
<path d="M15.431 26.0774C16.2077 26.0774 16.8373 25.379 16.8373 24.5175C16.8373 23.6559 16.2077 22.9575 15.431 22.9575C14.6544 22.9575 14.0248 23.6559 14.0248 24.5175C14.0248 25.379 14.6544 26.0774 15.431 26.0774Z" stroke="#141414" stroke-miterlimit="10" stroke-linecap="round" stroke-linejoin="round"/>
<path d="M26.886 12.0181H26.4641C26.257 12.0181 26.0891 12.2043 26.0891 12.4341V12.9104C26.0891 15.2759 24.3735 17.2057 22.2495 17.2479C20.0535 17.2916 18.2675 15.2869 18.2675 12.8506V12.4341C18.2675 12.2043 18.0996 12.0181 17.8925 12.0181H17.4706C17.2635 12.0181 17.0956 12.2043 17.0956 12.4341V12.9104C17.0956 15.6802 18.9053 17.9896 21.282 18.4606C21.4613 18.4961 21.5924 18.668 21.5924 18.87V20.718C21.5924 20.9477 21.7603 21.134 21.9674 21.134H22.3892C22.5963 21.134 22.7642 20.9477 22.7642 20.718V18.8687C22.7642 18.667 22.8948 18.4953 23.0738 18.4595C25.4557 17.9814 27.261 15.6337 27.261 12.8439V12.434C27.261 12.2043 27.093 12.0181 26.886 12.0181Z" stroke="#141414" stroke-miterlimit="10" stroke-linecap="round" stroke-linejoin="round"/>
<path d="M19.9606 8.56791C20.3704 8.56791 20.7026 8.19938 20.7026 7.74477C20.7026 7.29016 20.3704 6.92163 19.9606 6.92163C19.5508 6.92163 19.2186 7.29016 19.2186 7.74477C19.2186 8.19938 19.5508 8.56791 19.9606 8.56791Z" stroke="#141414" stroke-miterlimit="10" stroke-linecap="round" stroke-linejoin="round"/>
<path d="M24.3963 8.56791C24.8061 8.56791 25.1383 8.19938 25.1383 7.74477C25.1383 7.29016 24.8061 6.92163 24.3963 6.92163C23.9865 6.92163 23.6542 7.29016 23.6542 7.74477C23.6542 8.19938 23.9865 8.56791 24.3963 8.56791Z" stroke="#141414" stroke-miterlimit="10" stroke-linecap="round" stroke-linejoin="round"/>
<path d="M22.3218 29.1018V30.0898C22.3218 30.2621 22.1959 30.4018 22.0405 30.4018H17.9594C17.8041 30.4018 17.6782 30.2621 17.6782 30.0898V29.1018" stroke="#141414" stroke-miterlimit="10" stroke-linecap="round" stroke-linejoin="round"/>
</svg>
