<svg width="365" height="616" viewBox="0 0 365 616" fill="none" xmlns="http://www.w3.org/2000/svg">
<circle cx="182.324" cy="308.324" r="182.324" fill="#DCB56E"/>
<g clip-path="url(#clip0_89_2)">
<path d="M316.279 19.2477H48.2957V598.175H316.279V19.2477Z" fill="#E0EAFA"/>
<path fill-rule="evenodd" clip-rule="evenodd" d="M334.858 213.887V557.503C334.858 577.846 332.734 585.219 328.749 592.657C324.76 600.094 318.914 605.927 311.46 609.906C304.006 613.884 296.613 616 276.225 616H89.7749C69.3869 616 61.994 613.884 54.5401 609.906C47.0862 605.927 41.2403 600.094 37.2508 592.657C33.2661 585.219 31.1424 577.846 31.1424 557.503V228.861C29.961 228.861 29 227.901 29 226.722V185.371C29 184.191 29.961 183.232 31.1424 183.232V172.536C29.961 172.536 29 171.577 29 170.397V129.046C29 127.867 29.961 126.907 31.1424 126.907V107.66C29.961 107.66 29 106.7 29 105.52V85.5566C29 84.377 29.961 83.4174 31.1424 83.4174V58.4966C31.1424 38.1583 33.2661 30.7813 37.2508 23.3434C41.2403 15.9055 47.0862 10.0732 54.5401 6.09447C61.994 2.11574 69.3869 0 89.7749 0H276.225C296.613 0 304.006 2.11574 311.46 6.09447C318.914 10.0732 324.76 15.9055 328.749 23.3434C332.734 30.7813 334.858 38.1536 334.858 58.4966V141.881C336.039 141.881 337 142.841 337 144.02V211.752C337 212.932 336.039 213.891 334.858 213.891V213.887ZM48.2957 62.597C48.2957 47.4264 48.2957 39.8387 51.2538 34.0438C53.8556 28.9464 58.0139 24.8038 63.1238 22.206C68.9322 19.2523 76.5361 19.2523 91.7439 19.2523H102.606C105.236 19.257 107.416 21.2932 107.608 23.877C107.706 27.4204 108.396 30.023 109.6 32.2698C110.904 34.7085 112.826 36.623 115.273 37.9289C117.715 39.2349 120.584 39.9277 124.625 39.9277H239.917C243.958 39.9277 246.827 39.2349 249.269 37.9289C251.716 36.623 253.638 34.7085 254.946 32.2698C256.146 30.0277 256.831 27.4298 256.934 23.8957C257.117 21.3072 259.297 19.2617 261.936 19.257H272.826C288.034 19.257 295.638 19.257 301.451 22.2106C306.556 24.8085 310.715 28.9511 313.316 34.0485C316.274 39.8434 316.274 47.4311 316.274 62.6017V554.831C316.274 570.006 316.274 577.594 313.316 583.388C310.715 588.486 306.556 592.629 301.451 595.226C295.638 598.18 288.034 598.18 272.826 598.18H91.7439C76.5361 598.18 68.9322 598.18 63.1238 595.226C58.0139 592.629 53.8556 588.486 51.2538 583.388C48.2957 577.594 48.2957 570.006 48.2957 554.831V62.597Z" fill="white"/>
<path d="M152.847 591.72H213.322C213.969 591.72 214.494 592.245 214.494 592.891C214.494 593.537 213.969 594.061 213.322 594.061H152.847C152.2 594.061 151.675 593.537 151.675 592.891C151.675 592.245 152.2 591.72 152.847 591.72Z" fill="#243B55"/>
<path fill-rule="evenodd" clip-rule="evenodd" d="M215.516 29.9434C218.277 29.9434 220.518 27.7107 220.518 24.9537C220.518 22.1966 218.277 19.9639 215.516 19.9639C212.755 19.9639 210.514 22.1966 210.514 24.9537C210.514 27.7107 212.755 29.9434 215.516 29.9434Z" fill="#243B55"/>
<path d="M199.347 22.103H165.936C164.9 22.103 164.061 22.9413 164.061 23.9754V25.9366C164.061 26.9707 164.9 27.809 165.936 27.809H199.347C200.383 27.809 201.222 26.9707 201.222 25.9366V23.9754C201.222 22.9413 200.383 22.103 199.347 22.103Z" fill="#243B55"/>
</g>
<defs>
<clipPath id="clip0_89_2">
<rect width="308" height="616" fill="white" transform="translate(29)"/>
</clipPath>
</defs>
</svg>
