<svg width="534" height="200" viewBox="0 0 534 200" fill="none" xmlns="http://www.w3.org/2000/svg">
<path d="M101.962 89.2117C100.62 90.6228 99.9538 92.3136 99.9538 94.2841V123.056C99.9538 126.438 98.9335 128.902 96.893 130.453C94.8402 132.008 92.5529 132.781 90.0147 132.781C87.4765 132.781 85.2181 132.008 83.2393 130.453C81.2647 128.902 80.2815 126.438 80.2815 123.056V87.0931H65.4758V120.094C65.4758 129.824 68.2773 135.797 72.9876 139.343C77.879 143.033 83.3546 144.419 89.5871 144.415C95.7907 144.415 101.167 143.004 106.692 139.849C112.415 136.583 114.55 130.107 114.55 120.094V87.0931H107.145C105.03 87.0931 103.303 87.8007 101.962 89.2117Z" fill="#1A2F5F"/>
<path d="M165.895 116.072L176.043 85.1897L186.2 116.072H165.895ZM172.662 70.5937C169.132 70.5937 166.738 72.2146 165.471 75.4604L141.355 143.359H157.218L161.871 128.34H190.216L195.086 143.359H210.945L184.501 70.5937H172.662Z" fill="#1A2F5F"/>
<path d="M291.584 90.6903C286.73 86.9302 280.658 85.8236 274.454 85.8236C271.352 85.9676 268.357 86.4283 265.461 87.1976C262.569 87.9792 260.072 89.2834 257.949 91.114C255.411 88.9995 252.589 87.5884 249.491 86.8809C246.389 86.1774 243.213 85.8236 239.976 85.8236C233.908 86.1116 227.819 87.6831 223.368 91.114C218.641 94.7548 215.856 100.773 215.856 110.363L215.782 143.442L230.662 143.36V107.401C230.662 104.015 231.653 101.551 233.628 99.9999C235.607 98.449 237.857 97.6715 240.403 97.6715C242.933 97.6715 245.221 98.449 247.274 99.9999C249.314 101.551 250.343 104.015 250.343 107.401V143.36H264.93V107.401C264.93 104.015 265.951 101.551 268.003 99.9999C270.044 98.449 272.339 97.6715 274.873 97.6715C277.412 97.6715 279.707 98.449 281.748 99.9999C283.796 101.551 284.817 104.015 284.817 107.401V136.169C284.817 138.283 285.413 140.093 286.746 141.435C288.087 142.776 289.815 143.442 291.929 143.442H299.339L299.408 110.363C299.408 100.494 296.446 94.4462 291.584 90.6903Z" fill="#1A2F5F"/>
<path d="M335.044 80.7993L345.786 69.3217H336.274C335.003 69.3217 333.95 69.5027 333.206 70.0581C332.56 70.5271 332.584 70.5888 331.832 71.7406L325.908 82.017C325.908 82.017 328.429 81.8607 332.095 81.8607C334.329 81.8607 335.044 80.7993 335.044 80.7993Z" fill="#1A2F5F"/>
<path d="M319.987 109.516C320.123 105.851 321.184 103.033 323.159 101.054C325.129 99.0833 327.668 98.096 330.769 98.096C334.159 98.096 336.763 99.0833 338.594 101.054C340.289 102.889 341.281 105.707 341.56 109.516H319.987ZM330.354 85.8244C322.311 85.8244 316.034 88.4367 311.525 93.653C307.156 98.7254 304.963 105.781 304.963 114.802C304.963 124.252 307.218 131.517 311.735 136.589C316.252 141.81 322.525 144.418 330.56 144.418C337.191 144.418 342.687 142.797 347.056 139.555C351.429 136.453 354.391 131.936 355.942 126.017H345.37C343.675 126.017 342.366 126.066 341.424 127.366C341.424 127.366 340.445 129.135 337.816 130.748C335.188 132.36 331.267 132.36 331.234 132.36C327.623 132.34 324.969 131.003 323.159 128.765C321.184 126.646 320.123 123.408 319.987 119.035L356.242 119.031C356.242 119.031 356.609 118.998 356.625 118.727C356.65 118.443 356.765 116.806 356.794 115.23C356.946 105.921 354.527 98.6555 350.022 93.4391C345.37 88.3626 338.812 85.8244 330.354 85.8244Z" fill="#1A2F5F"/>
<path d="M392.719 87.0828C392.291 87.0828 391.176 87.0951 390.896 87.0951C387.095 87.0951 383.388 87.5888 379.789 88.572C376.197 89.5593 373.059 91.1102 370.38 93.2247C367.554 95.4874 365.337 98.4822 363.712 102.222C362.099 105.957 361.285 110.573 361.285 116.073V143.36H376.095V114.382C376.095 110.149 377.074 107.051 379.052 105.073C381.019 103.098 384.059 102.111 388.148 102.111L392.768 102.09C392.768 102.09 393.007 102.09 393.007 101.868C393.015 101.638 393.007 87.2144 393.007 87.2144C392.99 87.1445 392.982 87.0828 392.719 87.0828Z" fill="#1A2F5F"/>
<path d="M363.713 102.22C362.096 105.955 361.286 110.571 361.286 116.071V143.359L363.713 102.22Z" fill="#1A2F5F"/>
<path d="M456.234 127.18C455.391 127.888 454.259 129.501 452.215 130.776C450.475 131.677 448.48 132.257 446.085 132.257C442.416 132.257 439.668 131.13 437.833 128.871C435.295 126.197 434.027 121.61 434.027 115.123C434.027 108.635 435.295 103.983 437.833 101.165C439.812 99.1899 442.35 98.2026 445.452 98.2026C448.833 98.2026 451.446 99.1899 453.276 101.165C453.984 101.872 454.387 102.209 454.901 103.106C455.263 103.723 455.502 103.769 455.814 103.769H469.847C470.044 103.769 469.909 103.283 469.9 103.258C468.753 99.5107 467.058 96.4336 464.696 93.5457C460.043 88.4733 453.486 85.935 445.024 85.935C436.99 85.935 430.716 88.5391 426.199 93.7596C421.83 98.8361 419.646 105.887 419.646 114.913C419.646 124.358 421.9 131.623 426.417 136.7C430.926 141.916 437.199 144.524 445.234 144.524C451.865 144.524 457.365 142.908 461.738 139.662C466.107 136.56 469.065 132.047 470.616 126.123H460.044C458.357 126.123 457.086 126.477 456.234 127.18Z" fill="#1A2F5F"/>
<path d="M129.545 70.6073C129.442 70.6073 129.343 70.5949 129.24 70.5949C125.352 70.5949 122.177 73.5939 121.872 77.3992L121.839 143.356H136.649V70.5949H129.672C129.627 70.5949 129.586 70.6032 129.545 70.6073Z" fill="#1A2F5F"/>
<path d="M50.3371 105.924C48.3624 105.081 46.3918 104.233 44.4172 103.39C43.2817 103.106 41.7719 102.72 39.8672 102.226C37.9625 101.728 35.7453 101.058 33.207 100.214C32.0757 100.079 30.3151 99.6548 27.9209 98.9472C19.7343 97.1124 15.6491 94.2944 15.6491 90.485C15.6491 87.667 16.7022 85.4785 18.8249 83.9276C20.6555 82.3766 23.6877 81.5991 27.9209 81.5991C32.2815 81.5991 35.7453 82.5206 38.2836 84.3513C39.5547 85.3386 40.5338 86.5398 41.2414 87.9467C42.6483 90.9087 44.9766 92.3897 48.2224 92.3897H56.6846C56.4049 85.3386 53.8626 79.6286 49.0658 75.2556C44.4172 71.3063 37.7857 69.3316 29.1796 69.3316C20.014 69.3316 13.041 71.2322 8.24426 75.0416C3.44756 78.995 1.05332 84.4212 1.05332 91.3324C1.05332 95.2817 1.7566 98.5235 3.17176 101.058C4.29895 104.024 6.26532 106.282 9.08742 107.829C11.4899 109.52 16.2868 111.149 23.4778 112.692L25.1644 113.119L25.5882 113.329C38.2835 116.151 44.6228 119.821 44.6228 124.33C44.6228 127.292 43.4917 129.546 41.2414 131.097C38.9829 132.652 35.667 133.425 31.3023 133.425C26.3615 133.425 22.4904 132.438 19.6683 130.463C16.9861 128.773 15.3611 125.806 14.7974 121.577H0C0.415498 129.616 3.23772 135.68 8.45819 139.773C13.2467 143.866 20.4377 145.903 30.0353 145.903C39.3367 145.903 46.5275 143.932 51.6081 139.979C56.6846 135.754 59.2229 129.83 59.2229 122.211C59.2229 118.694 58.4455 115.444 56.8945 112.486C55.3436 109.804 53.1592 107.619 50.3371 105.924Z" fill="#1A2F5F"/>
<path d="M507.215 130.443C504.87 132.853 503.422 133.039 496.996 133.039C494.265 133.039 492.825 132.808 490.953 130.953C489.805 129.813 488.966 128.361 488.966 126.263C488.966 124.725 489.369 122.919 490.591 121.635C491.965 120.187 493.426 119.615 495.988 118.912L500.884 117.863C504.426 117.027 507.157 116.04 509.153 115.061L509.198 121.162C509.198 125.078 509.346 128.262 507.215 130.443ZM516.841 90.1558C512.863 87.4983 506.911 86.1654 498.963 86.1654C491.874 86.1654 486.411 87.774 482.581 90.9951C479.175 93.7966 477.188 97.3633 476.625 101.699H490.879C491.587 100.165 492.722 99.1158 494.285 98.5522C495.844 97.9927 497.613 97.713 499.604 97.713C501.447 97.713 503.574 97.9968 505.689 98.5975C507.98 99.2433 508.968 100.65 508.968 102.752C508.968 105.55 505.841 107.372 499.604 108.212L493.644 109.047C488.254 109.89 483.824 111.568 480.348 114.086C476.867 116.608 475.139 120.804 475.139 126.683C475.139 132.977 477.213 137.646 481.047 140.374C484.869 143.105 490.558 143.953 495.659 143.953C499.14 143.953 499.526 143.953 503.245 143.73C505.977 143.566 508.774 142.792 511.345 141.678C512.263 142.254 513.25 142.78 514.348 143.134C515.838 143.611 522.901 143.405 522.901 143.405L522.963 121.985C522.971 121.651 523.004 121.359 523.004 121.014V101.909C523.004 96.8738 520.947 92.9574 516.841 90.1558Z" fill="#1A2F5F"/>
<path d="M413.818 69.8438H406.129C404.134 69.8438 402.423 70.5555 400.995 71.983C399.58 73.4023 398.856 75.1136 398.856 77.1088V81.597H413.818V69.8438Z" fill="#1A2F5F"/>
<path d="M413.625 86.5122C413.56 86.5122 406.13 86.5081 406.13 86.5081C404.135 86.5081 402.423 87.2281 400.996 88.6514C399.581 90.0748 398.857 91.7821 398.857 93.7773V143.357H413.819L413.827 86.7097C413.827 86.7097 413.794 86.5122 413.625 86.5122Z" fill="#1A2F5F"/>
<path d="M384.892 5.8743C421.176 -2.267 453.672 9.87299 493.588 12.8843C521.719 15.0112 533.505 9.67554 533.505 9.67554C533.505 9.67554 534.365 9.64673 533.159 10.4901C527.639 14.353 512.87 19.5035 474.294 17.6399C401.019 14.1143 390.372 21.7456 354.343 34.1118C323.312 44.7708 308.634 46.1777 308.634 46.1777C308.634 46.1777 310.424 45.0587 312.201 43.9315C325.098 35.7614 356.178 12.3125 384.892 5.8743Z" fill="#D2421B"/>
<path d="M7.65617 8.52607C6.81283 9.55453 36.7081 28.5193 91.9488 27.894C155.619 27.1659 188.97 2.61444 220.852 31.6623C270.058 76.4785 314.586 42.3336 314.586 42.3336C314.586 42.3336 308.592 45.4273 266.931 41.8482C201.25 36.204 222.251 -7.04892 166.072 0.993644C135.683 5.34609 119.581 13.7259 93.7177 18.0084C41.1922 26.7051 8.62704 7.34539 7.65617 8.52607Z" fill="#F36318"/>
</svg>
